<svg width="32" height="32" viewBox="0 0 32 32" fill="none" xmlns="http://www.w3.org/2000/svg">
<mask id="mask0_3966_3153" style="mask-type:alpha" maskUnits="userSpaceOnUse" x="0" y="0" width="32" height="32">
<rect width="32" height="32" fill="#D9D9D9"/>
</mask>
<g mask="url(#mask0_3966_3153)">
<path d="M15.9999 11.6908C14.8717 11.6908 14.0529 11.8205 13.5436 12.0798C13.0343 12.3389 12.7796 12.7135 12.7796 13.2035V18.3302C12.7796 18.4742 12.8321 18.5987 12.9373 18.7038C13.0424 18.8092 13.1649 18.8618 13.3049 18.8618H14.6376V23.2428C14.6376 23.6244 14.7693 23.9468 15.0326 24.2102C15.2957 24.4735 15.6179 24.6052 15.9993 24.6052C16.3806 24.6052 16.7031 24.4735 16.9669 24.2102C17.2305 23.9468 17.3623 23.6244 17.3623 23.2428V18.8618H18.6949C18.8349 18.8618 18.9575 18.8092 19.0626 18.7038C19.1677 18.5987 19.2203 18.4762 19.2203 18.3362V13.2035C19.2203 12.7135 18.9656 12.3389 18.4563 12.0798C17.9469 11.8205 17.1281 11.6908 15.9999 11.6908ZM15.9959 28.6668C14.2437 28.6668 12.5976 28.3383 11.0576 27.6812C9.51781 27.0243 8.17403 26.1218 7.02625 24.9738C5.87825 23.8261 4.97581 22.4823 4.31892 20.9425C3.66181 19.4025 3.33325 17.7564 3.33325 16.0042C3.33325 14.2424 3.66247 12.5921 4.32092 11.0532C4.97936 9.51405 5.88125 8.17194 7.02659 7.02683C8.1717 5.8815 9.51525 4.97961 11.0573 4.32116C12.5993 3.66272 14.2455 3.3335 15.9959 3.3335C17.7557 3.3335 19.4056 3.66272 20.9456 4.32116C22.4856 4.97961 23.8281 5.8815 24.9733 7.02683C26.1186 8.17194 27.0205 9.51405 27.6789 11.0532C28.3374 12.5921 28.6666 14.2424 28.6666 16.0042C28.6666 17.7564 28.3374 19.4031 27.6789 20.9442C27.0205 22.4853 26.1186 23.8284 24.9733 24.9735C23.8281 26.1188 22.486 27.0207 20.9469 27.6792C19.408 28.3376 17.7577 28.6668 15.9959 28.6668ZM15.9999 26.9915C19.0819 26.9915 21.6844 25.9302 23.8073 23.8075C25.9299 21.6846 26.9913 19.0822 26.9913 16.0002C26.9913 12.9182 25.9299 10.3157 23.8073 8.19283C21.6844 6.07016 19.0819 5.00883 15.9999 5.00883C12.9179 5.00883 10.3155 6.07016 8.19259 8.19283C6.06992 10.3157 5.00859 12.9182 5.00859 16.0002C5.00859 19.0822 6.06992 21.6846 8.19259 23.8075C10.3155 25.9302 12.9179 26.9915 15.9999 26.9915ZM16.0016 10.7728C16.4827 10.7728 16.8854 10.6103 17.2096 10.2852C17.5336 9.96005 17.6956 9.55683 17.6956 9.0755C17.6956 8.59439 17.533 8.19172 17.2079 7.8675C16.8828 7.5435 16.4796 7.3815 15.9983 7.3815C15.5171 7.3815 15.1145 7.54405 14.7903 7.86916C14.4663 8.19428 14.3043 8.5975 14.3043 9.07883C14.3043 9.55994 14.4668 9.96261 14.7919 10.2868C15.117 10.6108 15.5203 10.7728 16.0016 10.7728Z" fill="#0568A6"/>
</g>
</svg>
