<svg width="30" height="30" viewBox="0 0 30 30" fill="none" xmlns="http://www.w3.org/2000/svg">
<mask id="mask0_3087_2761" style="mask-type:alpha" maskUnits="userSpaceOnUse" x="0" y="0" width="30" height="30">
<rect width="30" height="30" fill="#D9D9D9"/>
</mask>
<g mask="url(#mask0_3087_2761)">
<path d="M15.0602 7.66879C14.4289 7.66879 13.8865 7.44202 13.433 6.98847C12.9794 6.53493 12.7527 5.99243 12.7527 5.36097C12.7527 4.72952 12.9794 4.18702 13.433 3.73347C13.8865 3.27993 14.4289 3.05316 15.0602 3.05316C15.6916 3.05316 16.2341 3.27993 16.6877 3.73347C17.1412 4.18702 17.368 4.72952 17.368 5.36097C17.368 5.99243 17.1412 6.53493 16.6877 6.98847C16.2341 7.44202 15.6916 7.66879 15.0602 7.66879ZM21.4545 27.2119V21.2504C21.4545 21.1541 21.4265 21.078 21.3705 21.0219C21.3142 20.9659 21.2381 20.9379 21.142 20.9379H15.0842C14.4769 20.9379 13.9565 20.7211 13.523 20.2875C13.0894 19.854 12.8727 19.3336 12.8727 18.7263V11.2504C12.8727 10.6431 13.0855 10.1266 13.5111 9.70097C13.9365 9.27556 14.4529 9.06285 15.0602 9.06285C15.456 9.06285 15.8182 9.15816 16.1467 9.34879C16.4753 9.53962 16.8439 9.87056 17.2527 10.3416C18.4064 11.7087 19.4288 12.6455 20.3198 13.1519C21.2109 13.6582 22.2382 13.9538 23.4017 14.0388V15.9138C22.2413 15.8496 21.1367 15.564 20.088 15.0569C19.039 14.5496 18.0603 13.8624 17.1517 12.9954V18.5341H21.118C21.7253 18.5341 22.2457 18.7509 22.6792 19.1844C23.1128 19.6177 23.3295 20.1382 23.3295 20.7457V27.2119H21.4545ZM12.5602 27.2119C10.9191 27.2119 9.51526 26.6286 8.34859 25.4619C7.18192 24.2952 6.59859 22.8914 6.59859 21.2504C6.59859 19.7743 7.07255 18.4874 8.02047 17.3897C8.96838 16.292 10.1691 15.6214 11.6227 15.3779V17.2913C10.7172 17.5188 9.96609 17.9923 9.36922 18.7119C8.77213 19.4315 8.47359 20.2776 8.47359 21.2504C8.47359 22.3883 8.87026 23.3538 9.66359 24.1469C10.4569 24.9403 11.4224 25.3369 12.5602 25.3369C13.5331 25.3369 14.3792 25.0385 15.0986 24.4416C15.8182 23.8445 16.2918 23.0933 16.5195 22.1879H18.433C18.2053 23.6254 17.5386 24.822 16.433 25.7779C15.3271 26.7339 14.0362 27.2119 12.5602 27.2119Z" fill="#0568A6"/>
</g>
</svg>
