<svg width="14" height="14" viewBox="0 0 14 14" fill="none" xmlns="http://www.w3.org/2000/svg">
<path d="M9.93817 4.98842L9.01009 4.06034L6.99926 6.07118L4.98842 4.06034L4.06034 4.98842L6.07118 6.99925L4.06034 9.01009L4.98842 9.93816L6.99926 7.92733L9.01009 9.93817L9.93817 9.01009L7.92733 6.99925L9.93817 4.98842ZM11.9454 2.04589C12.6267 2.72716 13.1392 3.49747 13.4829 4.3568C13.8266 5.21614 13.9985 6.09695 13.9985 6.99925C13.9985 7.90155 13.8268 8.78219 13.4834 9.64118C13.14 10.5002 12.6266 11.2714 11.9431 11.9549C11.2596 12.6384 10.4903 13.1499 9.63526 13.4893C8.78022 13.8288 7.90155 13.9985 6.99925 13.9985C6.09695 13.9985 5.21631 13.8268 4.35732 13.4834C3.49834 13.14 2.72709 12.6266 2.04358 11.9431C1.36006 11.2596 0.848588 10.4903 0.509152 9.63525C0.169716 8.78022 0 7.90155 0 6.99926C0 6.09696 0.170668 5.21734 0.511994 4.36042C0.853407 3.50341 1.36471 2.73431 2.0459 2.05311C2.72718 1.37184 3.49748 0.859332 4.35681 0.5156C5.21614 0.171867 6.09696 0 6.99926 0C7.90155 0 8.78117 0.170657 9.6381 0.511984C10.4951 0.853396 11.2642 1.3647 11.9454 2.04589Z" fill="#C50004"/>
</svg>
