<svg width="24" height="24" viewBox="0 0 24 24" fill="none" xmlns="http://www.w3.org/2000/svg">
<path d="M12.9 18.7197C13.1486 18.4706 13.2729 18.1657 13.2729 17.8048C13.2729 17.4442 13.1484 17.1396 12.8994 16.8909C12.6503 16.6425 12.3455 16.5183 11.9848 16.5183C11.6242 16.5183 11.3196 16.6428 11.0709 16.8919C10.8223 17.1409 10.698 17.4458 10.698 17.8064C10.698 18.1671 10.8225 18.4717 11.0716 18.7203C11.3206 18.9687 11.6255 19.0929 11.9861 19.0929C12.3467 19.0929 12.6514 18.9685 12.9 18.7197ZM11.0915 14.5699H12.8697C12.8859 13.9482 12.9769 13.4515 13.1428 13.0797C13.3089 12.7081 13.7118 12.2155 14.3514 11.6018C14.9069 11.0462 15.3324 10.5332 15.6278 10.0626C15.9234 9.59232 16.0712 9.03684 16.0712 8.39621C16.0712 7.30884 15.6805 6.45947 14.8993 5.84811C14.1178 5.23695 13.1935 4.93137 12.1263 4.93137C11.072 4.93137 10.1996 5.21274 9.50905 5.77547C8.81832 6.33821 8.32558 7.00095 8.03084 7.76368L9.65337 8.41453C9.80726 7.99516 10.0704 7.58663 10.4428 7.18895C10.8153 6.79147 11.3683 6.59274 12.102 6.59274C12.8485 6.59274 13.4003 6.79716 13.7574 7.206C14.1146 7.61505 14.2933 8.06484 14.2933 8.55537C14.2933 8.98463 14.1709 9.37737 13.9263 9.73358C13.6819 10.0898 13.3702 10.4339 12.9913 10.7659C12.162 11.5141 11.6381 12.1109 11.4196 12.5564C11.2008 13.0017 11.0915 13.6728 11.0915 14.5699ZM12.0022 24C10.3424 24 8.78232 23.6851 7.32189 23.0552C5.86147 22.4253 4.59116 21.5704 3.51095 20.4906C2.43074 19.4108 1.57547 18.1411 0.945158 16.6813C0.315052 15.2215 0 13.6618 0 12.0022C0 10.3424 0.314947 8.78232 0.944842 7.32189C1.57474 5.86147 2.42958 4.59116 3.50937 3.51095C4.58916 2.43074 5.85895 1.57547 7.31874 0.945158C8.77853 0.315052 10.3382 0 11.9978 0C13.6576 0 15.2177 0.314947 16.6781 0.944842C18.1385 1.57474 19.4088 2.42958 20.4891 3.50937C21.5693 4.58916 22.4245 5.85895 23.0548 7.31874C23.6849 8.77853 24 10.3382 24 11.9978C24 13.6576 23.6851 15.2177 23.0552 16.6781C22.4253 18.1385 21.5704 19.4088 20.4906 20.4891C19.4108 21.5693 18.1411 22.4245 16.6813 23.0548C15.2215 23.6849 13.6618 24 12.0022 24Z" fill="url(#paint0_linear_4905_4866)"/>
<defs>
<linearGradient id="paint0_linear_4905_4866" x1="0" y1="12" x2="24" y2="12" gradientUnits="userSpaceOnUse">
<stop stop-color="#0568A6"/>
<stop offset="1" stop-color="#D93B58"/>
</linearGradient>
</defs>
</svg>
