<svg width="16" height="16" viewBox="0 0 16 16" fill="none" xmlns="http://www.w3.org/2000/svg">
<mask id="mask0_3148_3490" style="mask-type:alpha" maskUnits="userSpaceOnUse" x="0" y="0" width="16" height="16">
<rect width="16" height="16" fill="#D9D9D9"/>
</mask>
<g mask="url(#mask0_3148_3490)">
<path d="M6.91665 10V7H5.41665V6H9.41665V7H7.91665V10H6.91665ZM1.33331 10V6.66667C1.33331 6.47778 1.3972 6.31944 1.52498 6.19167C1.65276 6.06389 1.81109 6 1.99998 6H3.99998C4.18887 6 4.3472 6.06389 4.47498 6.19167C4.60276 6.31944 4.66665 6.47778 4.66665 6.66667V10H3.66665V9H2.33331V10H1.33331ZM2.33331 8H3.66665V7H2.33331V8ZM10.3333 10V6.66667C10.3333 6.47778 10.3972 6.31944 10.525 6.19167C10.6528 6.06389 10.8111 6 11 6H14C14.1889 6 14.3472 6.06389 14.475 6.19167C14.6028 6.31944 14.6666 6.47778 14.6666 6.66667V10H13.6666V7H13V9.33333H12V7H11.3333V10H10.3333Z" fill="white"/>
</g>
</svg>
