<svg width="30" height="30" viewBox="0 0 30 30" fill="none" xmlns="http://www.w3.org/2000/svg">
<mask id="mask0_3109_3026" style="mask-type:alpha" maskUnits="userSpaceOnUse" x="0" y="0" width="30" height="30">
<rect width="30" height="30" fill="#D9D9D9"/>
</mask>
<g mask="url(#mask0_3109_3026)">
<path d="M14.0625 21.4814V9.19268C13.1844 8.62059 12.2341 8.19153 11.2116 7.90549C10.1891 7.61945 9.16021 7.47643 8.125 7.47643C7.375 7.47643 6.67427 7.53528 6.02281 7.65299C5.37135 7.77091 4.70188 7.96361 4.01438 8.23111C3.91833 8.2632 3.85021 8.30934 3.81 8.36955C3.77 8.42955 3.75 8.49559 3.75 8.56768V20.3899C3.75 20.5022 3.7901 20.5843 3.87031 20.6364C3.95031 20.6885 4.03844 20.6944 4.13469 20.6542C4.7276 20.4524 5.35333 20.2969 6.01188 20.188C6.67063 20.079 7.375 20.0246 8.125 20.0246C9.16021 20.0246 10.1674 20.1419 11.1466 20.3767C12.1257 20.6115 13.0977 20.9798 14.0625 21.4814ZM15 24.2311C13.9921 23.4876 12.9048 22.9131 11.7381 22.5077C10.5715 22.1023 9.36708 21.8996 8.125 21.8996C7.36229 21.8996 6.61313 21.984 5.8775 22.153C5.14188 22.3222 4.43271 22.571 3.75 22.8996C3.30458 23.1046 2.88073 23.0721 2.47844 22.8021C2.07615 22.5321 1.875 22.1494 1.875 21.6542V8.08236C1.875 7.81299 1.94438 7.56017 2.08313 7.32393C2.22167 7.08747 2.42156 6.91716 2.68281 6.81299C3.52885 6.40111 4.41062 6.09622 5.32812 5.8983C6.24563 5.70038 7.17792 5.60143 8.125 5.60143C9.57854 5.60143 10.8409 5.77653 11.9122 6.12674C12.9834 6.47695 14.108 7.00455 15.2859 7.70955C15.4991 7.82663 15.6609 7.97247 15.7716 8.14705C15.8822 8.32184 15.9375 8.53663 15.9375 8.79143V21.4814C16.9023 20.9798 17.8743 20.6115 18.8534 20.3767C19.8326 20.1419 20.8398 20.0246 21.875 20.0246C22.625 20.0246 23.3294 20.079 23.9881 20.188C24.6467 20.2969 25.2724 20.4524 25.8653 20.6542C25.9616 20.6944 26.0497 20.6885 26.1297 20.6364C26.2099 20.5843 26.25 20.5022 26.25 20.3899V6.35643C26.4423 6.42038 26.6314 6.4909 26.8172 6.56799C27.0032 6.64486 27.1859 6.73455 27.3653 6.83705C27.6184 6.94913 27.8083 7.11945 27.935 7.34799C28.0617 7.57632 28.125 7.82111 28.125 8.08236V21.6542C28.125 22.1494 27.9158 22.5281 27.4975 22.7902C27.0792 23.0521 26.6393 23.0805 26.1778 22.8755C25.5032 22.5549 24.8042 22.312 24.0806 22.1471C23.3571 21.982 22.6219 21.8996 21.875 21.8996C20.6329 21.8996 19.4285 22.1023 18.2619 22.5077C17.0952 22.9131 16.0079 23.4876 15 24.2311ZM19.1828 17.5005V4.37549L23.0047 3.12549V16.2505L19.1828 17.5005Z" fill="#0568A6"/>
</g>
</svg>
