<svg width="32" height="32" viewBox="0 0 32 32" fill="none" xmlns="http://www.w3.org/2000/svg">
<mask id="mask0_3824_3233" style="mask-type:alpha" maskUnits="userSpaceOnUse" x="0" y="0" width="32" height="32">
<rect width="32" height="32" fill="#D9D9D9"/>
</mask>
<g mask="url(#mask0_3824_3233)">
<path d="M10.0963 18.0963C9.75856 18.4339 9.58967 18.8462 9.58967 19.3333C9.58967 19.8204 9.75856 20.2328 10.0963 20.5703C10.4339 20.9081 10.8462 21.077 11.3333 21.077C11.8204 21.077 12.2328 20.9081 12.5703 20.5703C12.9081 20.2328 13.077 19.8204 13.077 19.3333C13.077 18.8462 12.9081 18.4339 12.5703 18.0963C12.2328 17.7585 11.8204 17.5896 11.3333 17.5896C10.8462 17.5896 10.4339 17.7585 10.0963 18.0963ZM27.1473 15.522C28.1602 16.4338 28.6667 17.6188 28.6667 19.077V23.7436C28.6667 24.417 28.4248 24.9955 27.941 25.4793C27.4572 25.9631 26.8786 26.205 26.205 26.205L28.6667 28.6666H17.718L20.1797 26.205C19.5061 26.205 18.9274 25.9631 18.4437 25.4793C17.9599 24.9955 17.718 24.417 17.718 23.7436V19.077C17.718 17.6188 18.2287 16.4338 19.25 15.522C20.2713 14.61 21.5897 14.154 23.205 14.154C24.8206 14.154 26.1347 14.61 27.1473 15.522ZM22.4603 22.2806C22.273 22.468 22.1793 22.6906 22.1793 22.9486C22.1793 23.2069 22.273 23.4295 22.4603 23.6166C22.6474 23.8038 22.8701 23.8973 23.1283 23.8973C23.3863 23.8973 23.6089 23.8038 23.796 23.6166C23.9833 23.4295 24.077 23.2069 24.077 22.9486C24.077 22.6906 23.9833 22.468 23.796 22.2806C23.6089 22.0935 23.3863 22 23.1283 22C22.8701 22 22.6474 22.0935 22.4603 22.2806ZM19.5487 17.8463C19.4684 18.0376 19.4082 18.2338 19.368 18.4346C19.3278 18.6355 19.3077 18.8496 19.3077 19.077V20.3076H27.077V19.077C27.077 18.8496 27.0569 18.6355 27.0167 18.4346C26.9764 18.2338 26.9162 18.0376 26.836 17.8463H19.5487ZM16 3.33331C19.5829 3.33331 22.1452 3.6932 23.687 4.41298C25.229 5.13254 26 6.3282 26 7.99998V11.636C25.694 11.5369 25.3764 11.4591 25.0473 11.4026C24.7182 11.3462 24.3691 11.3 24 11.264V9.02565H8V14H16.6153C16.3538 14.2924 16.1252 14.6031 15.9297 14.932C15.7339 15.2611 15.5642 15.6171 15.4207 16H8V20C8 20.7333 8.26111 21.3611 8.78333 21.8833C9.30556 22.4055 9.93333 22.6666 10.6667 22.6666H14.795V24.6666H10.5127V26.3333C10.5127 26.6171 10.417 26.8546 10.2257 27.046C10.0341 27.2375 9.79656 27.3333 9.513 27.3333H8.69233C8.40856 27.3333 8.171 27.2375 7.97967 27.046C7.78811 26.8546 7.69233 26.6171 7.69233 26.3333V23.7026C7.27522 23.3864 6.88889 22.939 6.53333 22.3603C6.17778 21.7816 6 21.1316 6 20.4103V7.99998C6 6.38642 6.80211 5.2052 8.40633 4.45631C10.0108 3.70765 12.542 3.33331 16 3.33331ZM8.36933 7.02565H23.713C23.4308 6.49409 22.7162 6.07909 21.5693 5.78065C20.4222 5.48242 18.5794 5.33331 16.041 5.33331C13.5437 5.33331 11.7214 5.48931 10.5743 5.80131C9.42722 6.11331 8.69222 6.52142 8.36933 7.02565Z" fill="#1C1B1F"/>
</g>
</svg>
