<svg width="31" height="24" viewBox="0 0 31 24" fill="none" xmlns="http://www.w3.org/2000/svg">
<path fill-rule="evenodd" clip-rule="evenodd" d="M21.132 6.25668C21.132 9.72976 18.5206 12.5147 15.2639 12.5147C12.0072 12.5147 9.3958 9.72976 9.3958 6.25668C9.3958 2.78223 12.0072 0 15.2639 0C18.5206 0 21.132 2.78223 21.132 6.25668ZM15.2639 23.65C10.4806 23.65 6.39621 22.8459 6.39621 19.6298C6.39621 16.4122 10.4543 15.5788 15.2639 15.5788C20.0473 15.5788 24.1317 16.3829 24.1317 19.6005C24.1317 22.8166 20.0735 23.65 15.2639 23.65ZM23.6397 6.36957C23.6397 8.14008 23.1416 9.78947 22.2678 11.1606C22.178 11.3017 22.2579 11.4921 22.4164 11.5214C22.6349 11.5613 22.8608 11.5839 23.0904 11.5906C25.3811 11.6544 27.4369 10.0823 28.0049 7.71543C28.8462 4.19969 26.3759 1.04341 23.2303 1.04341C22.8883 1.04341 22.5612 1.082 22.2428 1.15122C22.1992 1.16188 22.1531 1.18318 22.1281 1.22445C22.0981 1.27503 22.1206 1.34292 22.1505 1.38685C23.0955 2.79927 23.6397 4.52185 23.6397 6.36957ZM27.4332 14.0608C28.9724 14.3816 29.9846 15.0365 30.4041 15.9883C30.7586 16.7698 30.7586 17.6763 30.4041 18.4565C29.7624 19.9327 27.6941 20.4067 26.8902 20.5291C26.7241 20.5557 26.5906 20.4027 26.6081 20.2256C27.0187 16.1348 23.7521 14.1952 22.907 13.7492C22.8707 13.7293 22.8633 13.6987 22.867 13.68C22.8695 13.6667 22.8845 13.6455 22.912 13.6415C24.7406 13.6055 26.7067 13.8718 27.4332 14.0608ZM7.57982 11.5904C7.80949 11.5838 8.03419 11.5625 8.25389 11.5212C8.41241 11.492 8.4923 11.3016 8.40243 11.1604C7.52864 9.78933 7.03057 8.13995 7.03057 6.36943C7.03057 4.52172 7.57483 2.79914 8.51977 1.38672C8.54973 1.34279 8.57094 1.2749 8.54223 1.22432C8.51727 1.18438 8.46983 1.16175 8.4274 1.15109C8.10783 1.08187 7.78079 1.04328 7.43876 1.04328C4.29311 1.04328 1.82279 4.19956 2.66537 7.7153C3.23334 10.0821 5.28924 11.6543 7.57982 11.5904ZM7.80263 13.6793C7.80637 13.6993 7.79888 13.7285 7.76393 13.7498C6.91761 14.1958 3.65088 16.1354 4.06157 20.2247C4.07904 20.4031 3.94672 20.555 3.7807 20.5297C2.97681 20.4071 0.908431 19.9333 0.266815 18.4569C-0.0889384 17.6756 -0.0889384 16.7704 0.266815 15.9889C0.686241 15.0371 1.69733 14.3822 3.23646 14.0599C3.9642 13.8722 5.92898 13.606 7.75894 13.6419C7.78641 13.6459 7.80014 13.6673 7.80263 13.6793Z" fill="#0568A6"/>
</svg>
