<svg width="31" height="24" viewBox="0 0 31 24" fill="none" xmlns="http://www.w3.org/2000/svg">
<path fill-rule="evenodd" clip-rule="evenodd" d="M15.2958 12.871H15.3339C18.8833 12.871 21.7694 9.98356 21.7694 6.43551C21.7694 2.88746 18.8833 0 15.3339 0C11.7857 0 8.89971 2.88746 8.89971 6.43128C8.89267 8.14545 9.55327 9.75961 10.7618 10.9752C11.9675 12.1921 13.5774 12.8654 15.2958 12.871ZM11.0125 6.43551C11.0125 4.0523 12.9506 2.11277 15.3339 2.11277C17.7171 2.11277 19.6566 4.0523 19.6566 6.43551C19.6566 8.82013 17.7171 10.7582 15.3339 10.7582H15.2986C14.1493 10.754 13.0704 10.3019 12.2604 9.48636C11.4505 8.67083 11.0082 7.59049 11.0125 6.43551Z" fill="#1F1F1F"/>
<path d="M22.74 10.5646C22.8146 11.0928 23.2667 11.4745 23.7851 11.4745C23.833 11.4745 23.8823 11.4716 23.9316 11.4646C26.4317 11.1139 28.3205 8.94477 28.3261 6.41649C28.3261 3.90511 26.5275 1.7867 24.0513 1.37964C23.4724 1.28809 22.9329 1.67402 22.8371 2.2501C22.7428 2.82619 23.1329 3.36987 23.7076 3.46425C25.1598 3.70228 26.2134 4.9446 26.2134 6.41368C26.2105 7.89544 25.1049 9.1659 23.64 9.37155C23.0611 9.45183 22.6597 9.98566 22.74 10.5646Z" fill="#1F1F1F"/>
<path d="M26.9875 19.7873C27.1481 20.2084 27.5495 20.4676 27.9749 20.4676C28.1002 20.4676 28.227 20.4451 28.351 20.3986C30.3651 19.631 30.6666 18.2323 30.6666 17.4661C30.6666 16.2111 29.9496 14.6082 26.5368 14.0969C25.9551 14.0222 25.4198 14.4068 25.3339 14.9843C25.248 15.5632 25.6466 16.0998 26.2227 16.1871C27.7692 16.4181 28.5538 16.8491 28.5538 17.4661C28.5538 17.659 28.5538 18.0605 27.5988 18.4239C27.0537 18.6309 26.7791 19.2422 26.9875 19.7873Z" fill="#1F1F1F"/>
<path fill-rule="evenodd" clip-rule="evenodd" d="M15.334 23.6501C12.9972 23.6501 5.88428 23.6501 5.88428 19.1499C5.88428 14.668 12.9972 14.668 15.334 14.668C17.6707 14.668 24.7823 14.668 24.7823 19.1738C24.7823 23.6501 17.9186 23.6501 15.334 23.6501ZM15.334 16.7807C11.9874 16.7807 7.99705 17.192 7.99705 19.1499C7.99705 21.1232 11.9874 21.5373 15.334 21.5373C18.6806 21.5373 22.6695 21.1274 22.6695 19.1738C22.6695 17.1963 18.6806 16.7807 15.334 16.7807Z" fill="#1F1F1F"/>
<path d="M6.8812 11.4743C6.83331 11.4743 6.78401 11.4715 6.73471 11.4645C4.2346 11.1137 2.34719 8.94463 2.34155 6.41909C2.34155 3.90489 4.14023 1.78648 6.6164 1.37942C7.20938 1.28646 7.73476 1.67661 7.83054 2.24988C7.92491 2.82596 7.53475 3.36965 6.96008 3.46402C5.5079 3.70206 4.45433 4.94437 4.45433 6.41627C4.45714 7.89521 5.56283 9.16717 7.02628 9.37141C7.60518 9.45169 8.0066 9.98538 7.92632 10.5644C7.85167 11.0926 7.39953 11.4743 6.8812 11.4743Z" fill="#1F1F1F"/>
<path d="M2.31701 20.3983C2.44096 20.4448 2.56772 20.4673 2.69308 20.4673C3.11845 20.4673 3.51988 20.2082 3.68045 19.787C3.88891 19.2419 3.61425 18.6306 3.06916 18.4236C2.11277 18.0588 2.11277 17.6587 2.11277 17.4658C2.11277 16.8488 2.89732 16.4178 4.44387 16.1868C5.01995 16.0995 5.41856 15.5629 5.33264 14.984C5.24531 14.4065 4.7129 14.0234 4.13118 14.0966C0.716935 14.6079 0 16.2122 0 17.4658C0 18.2306 0.301422 19.6293 2.31701 20.3983Z" fill="#1F1F1F"/>
</svg>
