<svg width="30" height="30" viewBox="0 0 30 30" fill="none" xmlns="http://www.w3.org/2000/svg">
<mask id="mask0_3109_2751" style="mask-type:alpha" maskUnits="userSpaceOnUse" x="0" y="0" width="30" height="30">
<rect width="30" height="30" fill="#D9D9D9"/>
</mask>
<g mask="url(#mask0_3109_2751)">
<path d="M15.0023 26.8755C13.3598 26.8755 11.8159 26.5638 10.3707 25.9405C8.92551 25.3172 7.66842 24.4712 6.59947 23.4027C5.53051 22.3341 4.68415 21.0776 4.0604 19.633C3.43686 18.1884 3.12509 16.645 3.12509 15.0027C3.12509 13.3602 3.43676 11.8163 4.06009 10.3711C4.68342 8.9259 5.52936 7.66882 6.5979 6.59986C7.66645 5.5309 8.92301 4.68455 10.3676 4.0608C11.8122 3.43726 13.3556 3.12549 14.9979 3.12549C16.6404 3.12549 18.1843 3.43715 19.6295 4.06049C21.0747 4.68382 22.3318 5.52976 23.4007 6.5983C24.4697 7.66684 25.316 8.9234 25.9398 10.368C26.5633 11.8126 26.8751 13.356 26.8751 14.9983C26.8751 16.6408 26.5634 18.1847 25.9401 19.6299C25.3168 21.0751 24.4708 22.3322 23.4023 23.4011C22.3337 24.4701 21.0772 25.3164 19.6326 25.9402C18.188 26.5637 16.6446 26.8755 15.0023 26.8755ZM15.9376 24.9427C18.4649 24.7025 20.6071 23.646 22.3642 21.7733C24.1214 19.9008 25.0001 17.6432 25.0001 15.0005C25.0001 12.3578 24.1255 10.1041 22.3763 8.23955C20.6272 6.37497 18.4809 5.31455 15.9376 5.0583V24.9427Z" fill="#0568A6"/>
</g>
</svg>
