<svg width="40" height="40" viewBox="0 0 40 40" fill="none" xmlns="http://www.w3.org/2000/svg">
<mask id="mask0_3163_3940" style="mask-type:alpha" maskUnits="userSpaceOnUse" x="0" y="0" width="40" height="40">
<rect width="40" height="40" fill="#D9D9D9"/>
</mask>
<g mask="url(#mask0_3163_3940)">
<path d="M7.50009 31.1535V18.7335L5.38467 20.3781C5.09189 20.5917 4.78203 20.676 4.45509 20.631C4.12842 20.5863 3.85814 20.4176 3.64425 20.1248C3.43064 19.832 3.34356 19.5221 3.383 19.1952C3.42272 18.8683 3.58036 18.598 3.85592 18.3844L7.50009 15.5831V12.051C7.50009 11.6963 7.61981 11.3994 7.85925 11.1602C8.09842 10.9207 8.39536 10.801 8.75009 10.801C9.10481 10.801 9.40175 10.9207 9.64092 11.1602C9.88036 11.3994 10.0001 11.6963 10.0001 12.051V13.6664L18.1668 7.43894C18.7245 7.02005 19.3383 6.81061 20.008 6.81061C20.678 6.81061 21.2865 7.02005 21.8334 7.43894L36.1443 18.3844C36.4198 18.598 36.5775 18.8683 36.6172 19.1952C36.6566 19.5221 36.5695 19.832 36.3559 20.1248C36.142 20.4003 35.8718 20.5606 35.5451 20.6056C35.2181 20.6503 34.9168 20.5659 34.6409 20.3523L32.5001 18.7335V31.1535C32.5001 31.9846 32.2058 32.6946 31.6172 33.2835C31.0283 33.8721 30.3183 34.1665 29.4872 34.1665H10.513C9.68189 34.1665 8.97189 33.8721 8.383 33.2835C7.79439 32.6946 7.50009 31.9846 7.50009 31.1535ZM10.513 31.6665H18.013V26.346C18.013 25.7883 18.2047 25.3176 18.588 24.9339C18.9716 24.5503 19.4423 24.3585 20.0001 24.3585C20.5579 24.3585 21.0286 24.5503 21.4122 24.9339C21.7955 25.3176 21.9872 25.7883 21.9872 26.346V31.6665H29.4872C29.6369 31.6665 29.7598 31.6184 29.8559 31.5223C29.952 31.4262 30.0001 31.3033 30.0001 31.1535V16.8331L20.3047 9.44853C20.2191 9.37381 20.1176 9.33644 20.0001 9.33644C19.8826 9.33644 19.7811 9.37381 19.6955 9.44853L10.0001 16.8331V31.1535C10.0001 31.3033 10.0481 31.4262 10.1443 31.5223C10.2404 31.6184 10.3633 31.6665 10.513 31.6665ZM10.513 31.6665H30.0001H10.0001H10.513ZM9.04175 8.97436C8.59509 8.97436 8.24356 8.79061 7.98717 8.42311C7.73078 8.05561 7.70203 7.67408 7.90092 7.27853C8.23425 6.47297 8.75884 5.83311 9.47467 5.35894C10.1902 4.8845 10.9851 4.64727 11.8593 4.64727C12.2395 4.64727 12.5952 4.54422 12.9263 4.33811C13.2575 4.13172 13.4819 3.85227 13.5997 3.49977C13.6958 3.29255 13.8379 3.12755 14.0259 3.00477C14.214 2.88172 14.4287 2.82019 14.6701 2.82019C15.1273 2.82019 15.4824 3.00672 15.7355 3.37977C15.9888 3.75255 16.0161 4.14186 15.8172 4.54769C15.4733 5.34269 14.9461 5.97464 14.2355 6.44353C13.5252 6.91269 12.7331 7.14727 11.8593 7.14727C11.4787 7.14727 11.1229 7.23811 10.7918 7.41978C10.4606 7.60144 10.2363 7.877 10.1188 8.24644C10.0119 8.4645 9.8687 8.64033 9.68925 8.77394C9.50981 8.90755 9.29398 8.97436 9.04175 8.97436Z" fill="white"/>
</g>
</svg>
