<svg width="32" height="32" viewBox="0 0 32 32" fill="none" xmlns="http://www.w3.org/2000/svg">
<mask id="mask0_3807_4658" style="mask-type:alpha" maskUnits="userSpaceOnUse" x="0" y="0" width="32" height="32">
<rect width="32" height="32" fill="#D9D9D9"/>
</mask>
<g mask="url(#mask0_3807_4658)">
<path d="M25.7087 23.6363C26.1194 23.225 26.3247 22.7256 26.3247 22.1383C26.3247 21.551 26.1194 21.0545 25.7087 20.649C25.2979 20.2436 24.799 20.041 24.2121 20.041C23.6252 20.041 23.1286 20.2456 22.7224 20.655C22.316 21.0643 22.1127 21.5613 22.1127 22.146C22.1127 22.7306 22.3149 23.228 22.7191 23.638C23.1231 24.048 23.6196 24.253 24.2087 24.253C24.7979 24.253 25.2979 24.0474 25.7087 23.6363ZM26.1761 27.9736C26.7823 27.6458 27.2817 27.1951 27.6744 26.6213C27.144 26.3069 26.5893 26.0645 26.0104 25.8943C25.4315 25.7243 24.8321 25.6393 24.2121 25.6393C23.5921 25.6393 22.9926 25.7243 22.4137 25.8943C21.8349 26.0645 21.2802 26.3069 20.7497 26.6213C21.1366 27.1951 21.6332 27.6458 22.2394 27.9736C22.8456 28.3012 23.5017 28.465 24.2077 28.465C24.9137 28.465 25.5699 28.3012 26.1761 27.9736ZM6.75242 27.3333C6.18108 27.3333 5.69064 27.1285 5.28108 26.719C4.87153 26.3094 4.66675 25.819 4.66675 25.2476V6.75229C4.66675 6.18096 4.87153 5.69051 5.28108 5.28096C5.69064 4.8714 6.18108 4.66663 6.75242 4.66663H25.2477C25.8191 4.66663 26.3095 4.8714 26.7191 5.28096C27.1286 5.69051 27.3334 6.18096 27.3334 6.75229V16.1733C27.0621 16.048 26.7853 15.9435 26.5031 15.86C26.2206 15.7762 25.939 15.7052 25.6581 15.647V6.75229C25.6581 6.64963 25.6154 6.55551 25.5301 6.46996C25.4445 6.38463 25.3504 6.34196 25.2477 6.34196H6.75242C6.64975 6.34196 6.55564 6.38463 6.47008 6.46996C6.38475 6.55551 6.34208 6.64963 6.34208 6.75229V25.2476C6.34208 25.3503 6.38475 25.4444 6.47008 25.53C6.55564 25.6153 6.64975 25.658 6.75242 25.658H15.6497C15.7084 25.9611 15.7783 26.2528 15.8594 26.5333C15.9407 26.8135 16.0421 27.0802 16.1634 27.3333H6.75242ZM6.34208 25.658V6.34196V15.647V15.5333V25.658ZM9.66675 22.1793H15.7991C15.8722 21.8893 15.9577 21.6054 16.0557 21.3276C16.1537 21.0498 16.2702 20.7754 16.4051 20.5043H9.66675V22.1793ZM9.66675 16.8376H19.7444C20.1206 16.6001 20.4922 16.4002 20.8591 16.238C21.226 16.076 21.6234 15.9422 22.0514 15.8366V15.1623H9.66675V16.8376ZM9.66675 11.4956H22.3334V9.82063H9.66675V11.4956ZM24.2051 30.0633C22.6015 30.0633 21.2349 29.4941 20.1051 28.3556C18.9753 27.2172 18.4104 25.8565 18.4104 24.2736C18.4104 22.6545 18.9752 21.2794 20.1047 20.1483C21.2345 19.017 22.605 18.4513 24.2161 18.4513C25.8123 18.4513 27.1776 19.017 28.3121 20.1483C29.4465 21.2794 30.0137 22.6545 30.0137 24.2736C30.0137 25.8565 29.4465 27.2172 28.3121 28.3556C27.1776 29.4941 25.8086 30.0633 24.2051 30.0633Z" fill="#1C1B1F"/>
</g>
</svg>
