<svg width="25" height="25" viewBox="0 0 25 25" fill="none" xmlns="http://www.w3.org/2000/svg">
<path fill-rule="evenodd" clip-rule="evenodd" d="M11.113 11.1139L9.84987 15.1519L13.8867 13.8875L15.1511 9.84948L11.113 11.1139ZM8.46972 17.4357C8.23326 17.4357 8.00162 17.3428 7.82909 17.1715C7.59142 16.9326 7.50455 16.5815 7.6059 16.2618L9.52779 10.1221C9.61586 9.83742 9.83781 9.61663 10.1201 9.52855L16.2598 7.60666C16.5819 7.50412 16.9318 7.59219 17.1707 7.82986C17.4083 8.06874 17.4952 8.41982 17.3939 8.73953L15.4732 14.8792C15.3851 15.1627 15.1619 15.3847 14.8796 15.4728L8.73997 17.3947C8.65069 17.4224 8.559 17.4357 8.46972 17.4357Z" fill="#0568A6"/>
<mask id="mask0_4361_9114" style="mask-type:luminance" maskUnits="userSpaceOnUse" x="0" y="0" width="25" height="25">
<path fill-rule="evenodd" clip-rule="evenodd" d="M0 0H25V24.9999H0V0Z" fill="white"/>
</mask>
<g mask="url(#mask0_4361_9114)">
<path fill-rule="evenodd" clip-rule="evenodd" d="M12.4999 1.80969C6.60512 1.80969 1.80944 6.60657 1.80944 12.5001C1.80944 18.3949 6.60512 23.1906 12.4999 23.1906C18.3947 23.1906 23.1904 18.3949 23.1904 12.5001C23.1904 6.60657 18.3947 1.80969 12.4999 1.80969ZM12.4999 25.0002C5.60738 25.0002 -0.000244141 19.3926 -0.000244141 12.5001C-0.000244141 5.60762 5.60738 0 12.4999 0C19.3924 0 25 5.60762 25 12.5001C25 19.3926 19.3924 25.0002 12.4999 25.0002Z" fill="#0568A6"/>
</g>
</svg>
