<svg width="32" height="32" viewBox="0 0 32 32" fill="none" xmlns="http://www.w3.org/2000/svg">
<mask id="mask0_3966_3315" style="mask-type:alpha" maskUnits="userSpaceOnUse" x="0" y="0" width="32" height="32">
<rect width="32" height="32" fill="#D9D9D9"/>
</mask>
<g mask="url(#mask0_3966_3315)">
<path d="M2.01294 25.2137V21.2563C2.01294 20.6632 2.21616 20.1574 2.62261 19.739C3.02927 19.3203 3.51972 19.1024 4.09394 19.0853H8.36661C8.73527 19.0853 9.0875 19.1769 9.42327 19.36C9.75927 19.5429 10.0409 19.7955 10.2683 20.118C10.9298 21.0604 11.7642 21.7907 12.7713 22.3087C13.7784 22.8264 14.8546 23.0853 15.9999 23.0853C17.1497 23.0853 18.2304 22.8264 19.2419 22.3087C20.2533 21.7907 21.0948 21.0604 21.7666 20.118C21.9975 19.7955 22.2759 19.5429 22.6019 19.36C22.9282 19.1769 23.2719 19.0853 23.6333 19.0853H27.9059C28.4906 19.1024 28.9857 19.3203 29.3913 19.739C29.7971 20.1574 29.9999 20.6632 29.9999 21.2563V25.2137C29.9999 25.515 29.9015 25.7641 29.7046 25.961C29.5077 26.1579 29.2586 26.2563 28.9573 26.2563H22.7009C22.3994 26.2563 22.1502 26.1579 21.9533 25.961C21.7564 25.7641 21.6579 25.515 21.6579 25.2137V22.6693C20.8826 23.3347 20.0126 23.8495 19.0479 24.214C18.0833 24.5784 17.0673 24.7607 15.9999 24.7607C14.9515 24.7607 13.9454 24.5794 12.9816 24.217C12.0178 23.8545 11.1422 23.3407 10.3546 22.6753V25.2137C10.3546 25.515 10.2562 25.7641 10.0593 25.961C9.86238 26.1579 9.61327 26.2563 9.31194 26.2563H3.05561C2.75405 26.2563 2.50483 26.1579 2.30794 25.961C2.11127 25.7641 2.01294 25.515 2.01294 25.2137ZM15.9999 20.9147C15.2313 20.9147 14.4966 20.7347 13.7959 20.3747C13.0955 20.0149 12.5191 19.5168 12.0666 18.8803C11.7322 18.4085 11.3345 18.0181 10.8736 17.709C10.4125 17.3999 9.9125 17.1854 9.37361 17.0657C10.0145 16.447 10.9924 15.9751 12.3073 15.65C13.6222 15.3249 14.8531 15.1623 15.9999 15.1623C17.1526 15.1623 18.3872 15.3249 19.7036 15.65C21.0203 15.9751 22.0034 16.447 22.6529 17.0657C22.1185 17.1854 21.6196 17.3999 21.1563 17.709C20.6932 18.0181 20.2972 18.4085 19.9683 18.8803C19.5234 19.5241 18.9485 20.0241 18.2436 20.3803C17.5387 20.7365 16.7908 20.9147 15.9999 20.9147ZM5.71794 16.752C4.76061 16.752 3.93727 16.4073 3.24794 15.718C2.55838 15.0284 2.21361 14.2051 2.21361 13.248C2.21361 12.2684 2.55838 11.4394 3.24794 10.761C3.93727 10.0828 4.76061 9.74365 5.71794 9.74365C6.69749 9.74365 7.52638 10.0828 8.20461 10.761C8.88305 11.4394 9.22227 12.2684 9.22227 13.248C9.22227 14.2051 8.88305 15.0284 8.20461 15.718C7.52638 16.4073 6.69749 16.752 5.71794 16.752ZM26.2819 16.752C25.3246 16.752 24.5013 16.4073 23.8119 15.718C23.1224 15.0284 22.7776 14.2051 22.7776 13.248C22.7776 12.2684 23.1224 11.4394 23.8119 10.761C24.5013 10.0828 25.3246 9.74365 26.2819 9.74365C27.2615 9.74365 28.0904 10.0828 28.7686 10.761C29.4471 11.4394 29.7863 12.2684 29.7863 13.248C29.7863 14.2051 29.4471 15.0284 28.7686 15.718C28.0904 16.4073 27.2615 16.752 26.2819 16.752ZM15.9999 12.752C15.0426 12.752 14.2193 12.4073 13.5299 11.718C12.8404 11.0284 12.4956 10.2051 12.4956 9.24799C12.4956 8.26843 12.8404 7.43943 13.5299 6.76099C14.2193 6.08276 15.0426 5.74365 15.9999 5.74365C16.9795 5.74365 17.8084 6.08276 18.4866 6.76099C19.1651 7.43943 19.5043 8.26843 19.5043 9.24799C19.5043 10.2051 19.1651 11.0284 18.4866 11.718C17.8084 12.4073 16.9795 12.752 15.9999 12.752Z" fill="#0568A6"/>
</g>
</svg>
