<svg width="30" height="30" viewBox="0 0 30 30" fill="none" xmlns="http://www.w3.org/2000/svg">
<mask id="mask0_3087_2771" style="mask-type:alpha" maskUnits="userSpaceOnUse" x="0" y="0" width="30" height="30">
<rect width="30" height="30" fill="#D9D9D9"/>
</mask>
<g mask="url(#mask0_3087_2771)">
<path d="M7.48824 27.1873C8.69157 27.1873 9.68469 26.8683 10.4676 26.2304C11.2505 25.5927 11.8567 24.6729 12.286 23.471C12.6242 22.4933 12.9748 21.7741 13.3379 21.3135C13.7008 20.8527 14.4576 20.168 15.6082 19.2594C16.8839 18.2338 17.8806 17.0787 18.5986 15.7941C19.3165 14.5098 19.6754 12.995 19.6754 11.2498C19.6754 8.8508 18.869 6.84476 17.2561 5.23163C15.6431 3.61871 13.6372 2.81226 11.2382 2.81226C8.88719 2.81226 6.91324 3.58465 5.31636 5.12944C3.71928 6.67444 2.88876 8.61038 2.8248 10.9373H4.69949C4.76365 9.14246 5.41876 7.65205 6.6648 6.46601C7.91084 5.28017 9.43532 4.68726 11.2382 4.68726C13.0891 4.68726 14.6455 5.3183 15.9076 6.58038C17.1697 7.84226 17.8007 9.39872 17.8007 11.2498C17.8007 12.6985 17.4934 13.9609 16.8789 15.0369C16.2643 16.1132 15.4321 17.0511 14.3823 17.8507C13.3471 18.6184 12.5454 19.3552 11.9773 20.061C11.4092 20.767 10.9593 21.5815 10.6276 22.5044C10.3039 23.4292 9.91282 24.1284 9.45449 24.6019C8.99615 25.0755 8.34074 25.3123 7.48824 25.3123C6.77657 25.3123 6.15594 25.0715 5.62636 24.5901C5.09657 24.1084 4.79563 23.5158 4.72355 22.8123H2.8248C2.89688 24.035 3.38042 25.0699 4.27542 25.9169C5.17042 26.7638 6.24136 27.1873 7.48824 27.1873ZM11.2382 14.1344C12.0491 14.1344 12.7325 13.8532 13.2886 13.2907C13.8446 12.7282 14.1226 12.0479 14.1226 11.2498C14.1226 10.4389 13.8446 9.75549 13.2886 9.19944C12.7325 8.64319 12.0491 8.36507 11.2382 8.36507C10.4272 8.36507 9.74365 8.64319 9.18761 9.19944C8.63157 9.75549 8.35355 10.4389 8.35355 11.2498C8.35355 12.0479 8.63157 12.7282 9.18761 13.2907C9.74365 13.8532 10.4272 14.1344 11.2382 14.1344ZM23.0651 17.7232L21.666 16.3363C22.0298 15.5574 22.3098 14.746 22.5061 13.9023C22.7025 13.0585 22.8007 12.1783 22.8007 11.2616C22.8007 10.3531 22.7046 9.48017 22.5123 8.64288C22.3198 7.80538 22.0417 6.99726 21.6779 6.21851L23.077 4.81944C23.593 5.78424 23.9884 6.80674 24.2632 7.88694C24.538 8.96694 24.6754 10.0879 24.6754 11.2498C24.6754 12.4325 24.5361 13.5638 24.2573 14.6438C23.9785 15.724 23.5812 16.7505 23.0651 17.7232ZM26.7332 21.3482L25.3582 19.9926C26.1387 18.7265 26.7408 17.3624 27.1648 15.9001C27.5888 14.4378 27.8007 12.9085 27.8007 11.3123C27.8007 9.69517 27.5836 8.15434 27.1492 6.68976C26.7148 5.22497 26.1074 3.85559 25.327 2.58163L26.7214 1.18726C27.662 2.63913 28.3895 4.21767 28.9039 5.92288C29.4182 7.62809 29.6754 9.41174 29.6754 11.2738C29.6754 13.1359 29.4182 14.9176 28.9039 16.6188C28.3895 18.3199 27.6659 19.8963 26.7332 21.3482Z" fill="#0568A6"/>
</g>
</svg>
