<svg width="20" height="20" viewBox="0 0 20 20" fill="none" xmlns="http://www.w3.org/2000/svg">
<path d="M4.31477 18.0046V15.4976H14.6855V18.0046H4.31477ZM6.58336 13.304H7.27203L11.0395 9.66097L10.6884 9.30843L10.3508 8.99505L6.58336 12.638V13.304ZM5.6111 14.2441V12.2474L11.0395 6.99729C11.1385 6.90153 11.2458 6.83189 11.3614 6.78837C11.4769 6.74484 11.5985 6.72308 11.726 6.72308C11.8535 6.72308 11.9758 6.74484 12.0928 6.78837C12.2098 6.83189 12.3183 6.90127 12.4182 6.9965L13.1055 7.66321C13.2046 7.75896 13.2766 7.86342 13.3216 7.97658C13.3666 8.08975 13.3891 8.209 13.3891 8.33435C13.3891 8.45178 13.3668 8.5673 13.3223 8.68089C13.2777 8.79449 13.2068 8.8983 13.1096 8.99231L7.67714 14.2441H5.6111ZM11.0395 9.66097L10.6884 9.30843L10.3508 8.99505L11.0395 9.66097Z" fill="#1F1F1F"/>
</svg>
