<svg width="18" height="18" viewBox="0 0 18 18" fill="none" xmlns="http://www.w3.org/2000/svg">
<mask id="mask0_2274_812" style="mask-type:alpha" maskUnits="userSpaceOnUse" x="0" y="0" width="18" height="18">
<rect width="18" height="18" fill="#D9D9D9"/>
</mask>
<g mask="url(#mask0_2274_812)">
<path d="M5.91338 13.125H7.41337V10.2692H8.16337V8.33663C8.16337 8.02025 8.055 7.75363 7.83825 7.53675C7.62138 7.32 7.35475 7.21163 7.03837 7.21163H6.28837C5.97213 7.21163 5.70556 7.32 5.48869 7.53675C5.27181 7.75363 5.16338 8.02025 5.16338 8.33663V10.2692H5.91338V13.125ZM6.66337 6.51919C6.8875 6.51919 7.07575 6.443 7.22813 6.29063C7.3805 6.13825 7.45669 5.95 7.45669 5.72588C7.45669 5.50188 7.3805 5.31369 7.22813 5.16131C7.07575 5.00894 6.8875 4.93275 6.66337 4.93275C6.43937 4.93275 6.25119 5.00894 6.09881 5.16131C5.94644 5.31369 5.87025 5.50188 5.87025 5.72588C5.87025 5.95 5.94644 6.13825 6.09881 6.29063C6.25119 6.443 6.43937 6.51919 6.66337 6.51919ZM10.2836 7.875H12.6778L11.4808 5.95669L10.2836 7.875ZM11.4808 12.0433L12.6778 10.125H10.2836L11.4808 12.0433ZM4.21162 15C3.86637 15 3.57812 14.8844 3.34688 14.6531C3.11563 14.4219 3 14.1336 3 13.7884V4.21162C3 3.86637 3.11563 3.57812 3.34688 3.34688C3.57812 3.11563 3.86637 3 4.21162 3H13.7884C14.1336 3 14.4219 3.11563 14.6531 3.34688C14.8844 3.57812 15 3.86637 15 4.21162V13.7884C15 14.1336 14.8844 14.4219 14.6531 14.6531C14.4219 14.8844 14.1336 15 13.7884 15H4.21162ZM4.21162 14.25H13.7884C13.923 14.25 14.0336 14.2068 14.1203 14.1203C14.2068 14.0336 14.25 13.923 14.25 13.7884V4.21162C14.25 4.077 14.2068 3.96637 14.1203 3.87975C14.0336 3.79325 13.923 3.75 13.7884 3.75H4.21162C4.077 3.75 3.96637 3.79325 3.87975 3.87975C3.79325 3.96637 3.75 4.077 3.75 4.21162V13.7884C3.75 13.923 3.79325 14.0336 3.87975 14.1203C3.96637 14.2068 4.077 14.25 4.21162 14.25Z" fill="#1F1F1F"/>
</g>
</svg>
