<svg width="24" height="25" viewBox="0 0 24 25" fill="none" xmlns="http://www.w3.org/2000/svg">
<path d="M8.16427 23.0254V19.2752C8.16427 18.3179 8.9486 17.5418 9.91607 17.5418H13.4529C13.9175 17.5418 14.3631 17.7244 14.6916 18.0495C15.0202 18.3746 15.2048 18.8155 15.2048 19.2752V23.0254C15.2018 23.4234 15.3596 23.8062 15.6429 24.0887C15.9263 24.3712 16.312 24.53 16.7141 24.53H19.1271C20.254 24.5328 21.3358 24.0919 22.1337 23.3045C22.9316 22.5171 23.38 21.4478 23.38 20.3327V9.6487C23.38 8.74796 22.9765 7.89356 22.2782 7.31567L14.0698 0.828955C12.6421 -0.30839 10.5962 -0.271668 9.21097 0.916172L1.18993 7.31567C0.458666 7.87652 0.0215957 8.73346 0 9.6487V20.3217C0 22.646 1.90409 24.53 4.25291 24.53H6.61074C7.4462 24.53 8.12516 23.863 8.13122 23.0364L8.16427 23.0254Z" fill="#0568A6"/>
</svg>
