<svg width="24" height="25" viewBox="0 0 24 25" fill="none" xmlns="http://www.w3.org/2000/svg">
<mask id="mask0_3789_7509" style="mask-type:luminance" maskUnits="userSpaceOnUse" x="0" y="0" width="24" height="25">
<path fill-rule="evenodd" clip-rule="evenodd" d="M0 0H23.3824V24.529H0V0Z" fill="white"/>
</mask>
<g mask="url(#mask0_3789_7509)">
<path fill-rule="evenodd" clip-rule="evenodd" d="M13.3644 16.3006C14.7377 16.3006 15.8555 17.4104 15.8555 18.7746V22.2831C15.8555 22.5763 16.0905 22.8112 16.3916 22.8181H18.5656C20.2788 22.8181 21.6715 21.4425 21.6715 19.7521V9.80137C21.6636 9.21966 21.3864 8.67216 20.9108 8.3083L13.3907 2.31093C12.3812 1.51136 10.9691 1.51136 9.95621 2.31322L2.48745 8.30602C1.99356 8.68128 1.71639 9.22878 1.71069 9.82076V19.7521C1.71069 21.4425 3.10338 22.8181 4.81659 22.8181H7.01114C7.32025 22.8181 7.57118 22.5728 7.57118 22.2717C7.57118 22.2056 7.57917 22.1394 7.59285 22.0767V18.7746C7.59285 17.4184 8.70381 16.3097 10.0669 16.3006H13.3644ZM18.5656 24.529H16.3711C15.1141 24.4993 14.1446 23.5127 14.1446 22.2831V18.7746C14.1446 18.3537 13.7944 18.0115 13.3644 18.0115H10.0726C9.65167 18.0138 9.30378 18.3571 9.30378 18.7746V22.2717C9.30378 22.3573 9.29237 22.4394 9.26842 22.5169C9.14523 23.6462 8.18027 24.529 7.01114 24.529H4.81659C2.16009 24.529 -0.000244141 22.3858 -0.000244141 19.7521V9.81278C0.011162 8.679 0.533565 7.64104 1.4358 6.95781L8.88974 0.975269C10.5311 -0.325035 12.8181 -0.325035 14.456 0.972988L21.9635 6.96123C22.8452 7.63306 23.3676 8.66874 23.3825 9.78882V19.7521C23.3825 22.3858 21.2221 24.529 18.5656 24.529Z" fill="#1F1F1F"/>
</g>
</svg>
