<svg width="30" height="30" viewBox="0 0 30 30" fill="none" xmlns="http://www.w3.org/2000/svg">
<mask id="mask0_3109_2711" style="mask-type:alpha" maskUnits="userSpaceOnUse" x="0" y="0" width="30" height="30">
<rect width="30" height="30" fill="#D9D9D9"/>
</mask>
<g mask="url(#mask0_3109_2711)">
<path d="M14.9999 18.7495C16.0416 18.7495 16.927 18.3849 17.6562 17.6558C18.3853 16.9266 18.7499 16.0412 18.7499 14.9995C18.7499 13.9578 18.3853 13.0724 17.6562 12.3433C16.927 11.6141 16.0416 11.2495 14.9999 11.2495C13.9582 11.2495 13.0728 11.6141 12.3437 12.3433C11.6145 13.0724 11.2499 13.9578 11.2499 14.9995C11.2499 16.0412 11.6145 16.9266 12.3437 17.6558C13.0728 18.3849 13.9582 18.7495 14.9999 18.7495ZM14.9999 20.6245C13.4391 20.6245 12.1114 20.0772 11.0168 18.9826C9.9222 17.8881 9.37491 16.5603 9.37491 14.9995C9.37491 13.4387 9.9222 12.111 11.0168 11.0164C12.1114 9.9218 13.4391 9.37451 14.9999 9.37451C16.5607 9.37451 17.8885 9.9218 18.983 11.0164C20.0776 12.111 20.6249 13.4387 20.6249 14.9995C20.6249 16.5603 20.0776 17.8881 18.983 18.9826C17.8885 20.0772 16.5607 20.6245 14.9999 20.6245ZM6.24991 15.937H1.56241V14.062H6.24991V15.937ZM28.4374 15.937H23.7499V14.062H28.4374V15.937ZM14.0624 6.24951V1.56201H15.9374V6.24951H14.0624ZM14.0624 28.437V23.7495H15.9374V28.437H14.0624ZM8.21616 9.47076L5.28835 6.64389L6.61303 5.2567L9.43272 8.15326L8.21616 9.47076ZM23.3868 24.7423L20.548 21.8264L21.7837 20.5283L24.7115 23.3551L23.3868 24.7423ZM20.5287 8.21576L23.3555 5.28795L24.7427 6.61264L21.8462 9.43232L20.5287 8.21576ZM5.2571 23.3864L8.17303 20.5476L9.4471 21.7833L6.6321 24.723L5.2571 23.3864Z" fill="#0568A6"/>
</g>
</svg>
