<svg width="24" height="24" viewBox="0 0 24 24" fill="none" xmlns="http://www.w3.org/2000/svg">
<mask id="mask0_4186_5093" style="mask-type:alpha" maskUnits="userSpaceOnUse" x="0" y="0" width="24" height="24">
<rect width="24" height="24" fill="#D9D9D9"/>
</mask>
<g mask="url(#mask0_4186_5093)">
<path d="M13.2778 11.3355C13.6311 10.9823 13.8078 10.5564 13.8078 10.0578C13.8078 9.55908 13.6311 9.13308 13.2778 8.77975C12.9246 8.42658 12.4987 8.25 12 8.25C11.5014 8.25 11.0754 8.42658 10.7223 8.77975C10.3689 9.13308 10.1923 9.55908 10.1923 10.0578C10.1923 10.5564 10.3689 10.9823 10.7223 11.3355C11.0754 11.6887 11.5014 11.8652 12 11.8652C12.4987 11.8652 12.9246 11.6887 13.2778 11.3355ZM12 19.5135C13.9564 17.7622 15.4534 16.0823 16.4913 14.474C17.5291 12.8657 18.048 11.457 18.048 10.248C18.048 8.425 17.4689 6.92633 16.3105 5.752C15.1522 4.57767 13.7154 3.9905 12 3.9905C10.2847 3.9905 8.84786 4.57767 7.68953 5.752C6.53119 6.92633 5.95203 8.425 5.95203 10.248C5.95203 11.457 6.47094 12.8657 7.50878 14.474C8.54661 16.0823 10.0437 17.7622 12 19.5135ZM12 21.5095C9.48336 19.3288 7.59619 17.2994 6.33853 15.4212C5.08086 13.5429 4.45203 11.8185 4.45203 10.248C4.45203 7.94033 5.19844 6.07208 6.69128 4.64325C8.18428 3.21442 9.95386 2.5 12 2.5C14.0462 2.5 15.8158 3.21442 17.3088 4.64325C18.8016 6.07208 19.548 7.94033 19.548 10.248C19.548 11.8185 18.9192 13.5429 17.6615 15.4212C16.4039 17.2994 14.5167 19.3288 12 21.5095Z" fill="#1C1B1F"/>
</g>
</svg>
