<svg width="30" height="30" viewBox="0 0 30 30" fill="none" xmlns="http://www.w3.org/2000/svg">
<path fill-rule="evenodd" clip-rule="evenodd" d="M15.3131 10.625C14.1069 10.625 13.1256 11.6063 13.1256 12.8138C13.1256 14.02 14.1069 15 15.3131 15C16.5194 15 17.5006 14.02 17.5006 12.8138C17.5006 11.6063 16.5194 10.625 15.3131 10.625ZM15.3131 16.875C13.0731 16.875 11.2506 15.0538 11.2506 12.8137C11.2506 10.5725 13.0731 8.75 15.3131 8.75C17.5531 8.75 19.3756 10.5725 19.3756 12.8137C19.3756 15.0538 17.5531 16.875 15.3131 16.875Z" fill="#0568A6"/>
<mask id="mask0_2373_1171" style="mask-type:luminance" maskUnits="userSpaceOnUse" x="5" y="2" width="21" height="25">
<path fill-rule="evenodd" clip-rule="evenodd" d="M5 2.5H25.6244V26.875H5V2.5Z" fill="white"/>
</mask>
<g mask="url(#mask0_2373_1171)">
<path fill-rule="evenodd" clip-rule="evenodd" d="M15.3119 4.375C10.6594 4.375 6.87439 8.19625 6.87439 12.8913C6.87439 18.865 13.9044 24.685 15.3119 24.995C16.7194 24.6838 23.7494 18.8638 23.7494 12.8913C23.7494 8.19625 19.9644 4.375 15.3119 4.375ZM15.3119 26.875C13.0694 26.875 4.99939 19.935 4.99939 12.8912C4.99939 7.16125 9.62564 2.5 15.3119 2.5C20.9981 2.5 25.6244 7.16125 25.6244 12.8912C25.6244 19.935 17.5544 26.875 15.3119 26.875Z" fill="#0568A6"/>
</g>
</svg>
