<svg width="32" height="32" viewBox="0 0 32 32" fill="none" xmlns="http://www.w3.org/2000/svg">
<mask id="mask0_3966_3258" style="mask-type:alpha" maskUnits="userSpaceOnUse" x="0" y="0" width="32" height="32">
<rect width="32" height="32" fill="#D9D9D9"/>
</mask>
<g mask="url(#mask0_3966_3258)">
<path d="M5.74359 26C5.07003 26 4.49992 25.7667 4.03325 25.3C3.56659 24.8333 3.33325 24.2632 3.33325 23.5897V8.41033C3.33325 7.73678 3.56659 7.16667 4.03325 6.7C4.49992 6.23333 5.07003 6 5.74359 6H26.2563C26.9298 6 27.4999 6.23333 27.9666 6.7C28.4333 7.16667 28.6666 7.73678 28.6666 8.41033V23.5897C28.6666 24.2632 28.4333 24.8333 27.9666 25.3C27.4999 25.7667 26.9298 26 26.2563 26H5.74359ZM26.6666 9.923L16.6486 16.336C16.5461 16.394 16.4401 16.4397 16.3306 16.473C16.2213 16.5063 16.111 16.523 15.9999 16.523C15.8888 16.523 15.7786 16.5063 15.6693 16.473C15.5597 16.4397 15.4537 16.394 15.3513 16.336L5.33325 9.923V23.5897C5.33325 23.7094 5.3717 23.8078 5.44859 23.8847C5.52547 23.9616 5.62381 24 5.74359 24H26.2563C26.376 24 26.4744 23.9616 26.5513 23.8847C26.6281 23.8078 26.6666 23.7094 26.6666 23.5897V9.923ZM15.9999 14.6667L26.4616 8H5.53825L15.9999 14.6667ZM5.33325 10.2307V8.70633V8.746V8.70367V10.2307Z" fill="#0568A6"/>
</g>
</svg>
