<svg width="25" height="25" viewBox="0 0 25 25" fill="none" xmlns="http://www.w3.org/2000/svg">
<path fill-rule="evenodd" clip-rule="evenodd" d="M0 12.5C0 5.60001 5.5875 0 12.5 0C19.4 0 25 5.60001 25 12.5C25 19.4125 19.4 25 12.5 25C5.5875 25 0 19.4125 0 12.5ZM15.2875 14.7875L17.3125 8.38751C17.45 7.95001 17.05 7.53751 16.6125 7.67501L10.2125 9.67501C9.95 9.76251 9.7375 9.96251 9.6625 10.225L7.6625 16.6375C7.525 17.0625 7.9375 17.475 8.3625 17.3375L14.7375 15.3375C15 15.2625 15.2125 15.05 15.2875 14.7875Z" fill="#0568A6"/>
</svg>
