<svg width="30" height="30" viewBox="0 0 30 30" fill="none" xmlns="http://www.w3.org/2000/svg">
<mask id="mask0_3109_3004" style="mask-type:alpha" maskUnits="userSpaceOnUse" x="0" y="0" width="30" height="30">
<rect width="30" height="30" fill="#D9D9D9"/>
</mask>
<g mask="url(#mask0_3109_3004)">
<path d="M10.2644 25.626C9.64314 25.626 9.11126 25.4047 8.66876 24.9622C8.22626 24.5197 8.00501 23.9878 8.00501 23.3663V6.63566C8.00501 6.01421 8.22626 5.48223 8.66876 5.03973C9.11126 4.59723 9.64314 4.37598 10.2644 4.37598H19.7356C20.3569 4.37598 20.8888 4.59723 21.3313 5.03973C21.7738 5.48223 21.995 6.01421 21.995 6.63566V23.3663C21.995 23.9878 21.7738 24.5197 21.3313 24.9622C20.8888 25.4047 20.3569 25.626 19.7356 25.626H10.2644ZM20.1203 23.3663V6.63566C20.1203 6.52337 20.0842 6.43119 20.0119 6.3591C19.9398 6.28702 19.8477 6.25098 19.7356 6.25098H10.2644C10.1523 6.25098 10.0602 6.28702 9.98814 6.3591C9.91585 6.43119 9.8797 6.52337 9.8797 6.63566V23.3663C9.8797 23.4786 9.91585 23.5708 9.98814 23.6429C10.0602 23.7149 10.1523 23.751 10.2644 23.751H19.7356C19.8477 23.751 19.9398 23.7149 20.0119 23.6429C20.0842 23.5708 20.1203 23.4786 20.1203 23.3663ZM15.025 10.1932C15.3386 10.1932 15.6011 10.0871 15.8125 9.87504C16.024 9.66296 16.1297 9.40014 16.1297 9.0866C16.1297 8.77306 16.0237 8.51056 15.8116 8.2991C15.5995 8.08764 15.3367 7.98192 15.0231 7.98192C14.7096 7.98192 14.4471 8.08796 14.2356 8.30004C14.0242 8.51212 13.9185 8.77494 13.9185 9.08848C13.9185 9.40202 14.0245 9.66452 14.2366 9.87598C14.4487 10.0874 14.7115 10.1932 15.025 10.1932ZM0.913452 18.4385V11.5635H2.78845V18.4385H0.913452ZM4.51939 20.9385V9.06348H6.39439V20.9385H4.51939ZM27.2116 18.4385V11.5635H29.0866V18.4385H27.2116ZM23.6056 20.9385V9.06348H25.4806V20.9385H23.6056ZM9.8797 23.3663V23.751V6.25098V23.3663Z" fill="#0568A6"/>
</g>
</svg>
