<svg width="30" height="30" viewBox="0 0 30 30" fill="none" xmlns="http://www.w3.org/2000/svg">
<mask id="mask0_3109_2741" style="mask-type:alpha" maskUnits="userSpaceOnUse" x="0" y="0" width="30" height="30">
<rect width="30" height="30" fill="#D9D9D9"/>
</mask>
<g mask="url(#mask0_3109_2741)">
<path d="M18.5698 9.74703L15.2645 6.44172L18.5698 3.13672L21.8751 6.44172L18.5698 9.74703ZM24.8198 13.497L22.7645 11.4417L24.8198 9.38672L26.8751 11.4417L24.8198 13.497ZM15.0939 26.8745C13.432 26.8745 11.8736 26.5592 10.4186 25.9286C8.96338 25.298 7.69411 24.441 6.61078 23.3577C5.52744 22.2743 4.67046 21.005 4.03984 19.5498C3.40922 18.0948 3.0939 16.5364 3.0939 14.8745C3.0939 12.1374 3.92849 9.69953 5.59765 7.56078C7.26661 5.42224 9.42484 4.01963 12.0723 3.35297C11.8415 5.35943 12.0482 7.30495 12.6923 9.18953C13.3367 11.0741 14.3744 12.7319 15.8055 14.163C17.2365 15.594 18.8943 16.6317 20.7789 17.2761C22.6635 17.9203 24.609 18.1269 26.6155 17.8961C25.9617 20.5436 24.5622 22.7018 22.417 24.3708C20.272 26.0399 17.831 26.8745 15.0939 26.8745ZM15.0939 24.9995C16.9272 24.9995 18.6251 24.5412 20.1876 23.6245C21.7501 22.7079 22.9793 21.4474 23.8751 19.8433C22.0835 19.6766 20.3856 19.2215 18.7814 18.478C17.1772 17.7344 15.7397 16.7272 14.4689 15.4564C13.1981 14.1856 12.1877 12.75 11.4377 11.1498C10.6877 9.54963 10.2397 7.8537 10.0939 6.06203C8.48973 6.95786 7.23453 8.19224 6.32828 9.76515C5.42203 11.3381 4.9689 13.0412 4.9689 14.8745C4.9689 17.687 5.95328 20.0777 7.92203 22.0464C9.89078 24.0152 12.2814 24.9995 15.0939 24.9995Z" fill="#0568A6"/>
</g>
</svg>
