<svg width="30" height="30" viewBox="0 0 30 30" fill="none" xmlns="http://www.w3.org/2000/svg">
<mask id="mask0_3087_2790" style="mask-type:alpha" maskUnits="userSpaceOnUse" x="0" y="0" width="30" height="30">
<rect width="30" height="30" fill="#D9D9D9"/>
</mask>
<g mask="url(#mask0_3087_2790)">
<path d="M7.50009 17.4998C6.81259 17.4998 6.22405 17.255 5.73447 16.7654C5.24488 16.2759 5.00009 15.6873 5.00009 14.9998C5.00009 14.3123 5.24488 13.7238 5.73447 13.2342C6.22405 12.7446 6.81259 12.4998 7.50009 12.4998C8.18759 12.4998 8.77613 12.7446 9.26572 13.2342C9.7553 13.7238 10.0001 14.3123 10.0001 14.9998C10.0001 15.6873 9.7553 16.2759 9.26572 16.7654C8.77613 17.255 8.18759 17.4998 7.50009 17.4998ZM15.0001 17.4998C14.3126 17.4998 13.724 17.255 13.2345 16.7654C12.7449 16.2759 12.5001 15.6873 12.5001 14.9998C12.5001 14.3123 12.7449 13.7238 13.2345 13.2342C13.724 12.7446 14.3126 12.4998 15.0001 12.4998C15.6876 12.4998 16.2761 12.7446 16.7657 13.2342C17.2553 13.7238 17.5001 14.3123 17.5001 14.9998C17.5001 15.6873 17.2553 16.2759 16.7657 16.7654C16.2761 17.255 15.6876 17.4998 15.0001 17.4998ZM22.5001 17.4998C21.8126 17.4998 21.224 17.255 20.7345 16.7654C20.2449 16.2759 20.0001 15.6873 20.0001 14.9998C20.0001 14.3123 20.2449 13.7238 20.7345 13.2342C21.224 12.7446 21.8126 12.4998 22.5001 12.4998C23.1876 12.4998 23.7761 12.7446 24.2657 13.2342C24.7553 13.7238 25.0001 14.3123 25.0001 14.9998C25.0001 15.6873 24.7553 16.2759 24.2657 16.7654C23.7761 17.255 23.1876 17.4998 22.5001 17.4998Z" fill="#0568A6"/>
</g>
</svg>
