<svg width="24" height="24" viewBox="0 0 24 24" fill="none" xmlns="http://www.w3.org/2000/svg">
<path fill-rule="evenodd" clip-rule="evenodd" d="M3.04798 0H7.10397C8.79596 0 10.1519 1.38002 10.1519 3.07325V7.16411C10.1519 8.86813 8.79596 10.2362 7.10397 10.2362H3.04798C1.36799 10.2362 0 8.86813 0 7.16411V3.07325C0 1.38002 1.36799 0 3.04798 0ZM3.04798 13.7638H7.10397C8.79596 13.7638 10.1519 15.1331 10.1519 16.8371V20.928C10.1519 22.62 8.79596 24 7.10397 24H3.04798C1.36799 24 0 22.62 0 20.928V16.8371C0 15.1331 1.36799 13.7638 3.04798 13.7638ZM20.952 0H16.896C15.204 0 13.8481 1.38002 13.8481 3.07325V7.16411C13.8481 8.86813 15.204 10.2362 16.896 10.2362H20.952C22.632 10.2362 24 8.86813 24 7.16411V3.07325C24 1.38002 22.632 0 20.952 0ZM16.896 13.7638H20.952C22.632 13.7638 24 15.1331 24 16.8371V20.928C24 22.62 22.632 24 20.952 24H16.896C15.204 24 13.8481 22.62 13.8481 20.928V16.8371C13.8481 15.1331 15.204 13.7638 16.896 13.7638Z" fill="#0568A6"/>
</svg>
