<svg width="24" height="24" viewBox="0 0 24 24" fill="none" xmlns="http://www.w3.org/2000/svg">
<path fill-rule="evenodd" clip-rule="evenodd" d="M5.23077 1.84615C1.84615 1.84615 1.84615 2.10215 1.84615 5.23077V5.26154C1.84615 6.624 1.84615 7.60862 2.17969 8.02462C2.50585 8.42831 3.47446 8.61538 5.23077 8.61538C6.98708 8.61538 7.95569 8.42708 8.28185 8.02338C8.61538 7.60861 8.61538 6.624 8.61538 5.26031C8.61538 2.10215 8.61538 1.84615 5.23077 1.84615ZM5.23077 10.4615C3.15569 10.4615 1.59877 10.2437 0.743385 9.18154C1.46719e-07 8.25969 0 7.00185 0 5.26154L0.923077 5.23077H0C0 1.69846 0.222769 0 5.23077 0C10.2388 0 10.4615 1.69846 10.4615 5.23077C10.4615 7.00062 10.4615 8.25969 9.71815 9.18154C8.86277 10.2437 7.30585 10.4615 5.23077 10.4615Z" fill="#1F1F1F"/>
<path fill-rule="evenodd" clip-rule="evenodd" d="M18.7693 1.84615C15.3847 1.84615 15.3847 2.10215 15.3847 5.23077V5.26154C15.3847 6.624 15.3847 7.60862 15.7183 8.02462C16.0444 8.42831 17.013 8.61538 18.7693 8.61538C20.5257 8.61538 21.4943 8.42708 21.8204 8.02338C22.154 7.60861 22.154 6.624 22.154 5.26031C22.154 2.10215 22.154 1.84615 18.7693 1.84615ZM18.7693 10.4615C16.6943 10.4615 15.1373 10.2437 14.282 9.18154C13.5386 8.25969 13.5386 7.00185 13.5386 5.26154L14.4617 5.23077H13.5386C13.5386 1.69846 13.7613 0 18.7693 0C23.7773 0 24.0001 1.69846 24.0001 5.23077C24.0001 7.00062 24.0001 8.25969 23.2567 9.18154C22.4013 10.2437 20.8444 10.4615 18.7693 10.4615Z" fill="#1F1F1F"/>
<path fill-rule="evenodd" clip-rule="evenodd" d="M5.23077 15.3847C1.84615 15.3847 1.84615 15.6407 1.84615 18.7693V18.8001C1.84615 20.1626 1.84615 21.1472 2.17969 21.5632C2.50585 21.9669 3.47446 22.154 5.23077 22.154C6.98708 22.154 7.95569 21.9656 8.28185 21.562C8.61538 21.1472 8.61538 20.1626 8.61538 18.7989C8.61538 15.6407 8.61538 15.3847 5.23077 15.3847ZM5.23077 24.0001C3.15569 24.0001 1.59877 23.7823 0.743385 22.7201C1.46719e-07 21.7983 0 20.5404 0 18.8001L0.923077 18.7693H0C0 15.237 0.222769 13.5386 5.23077 13.5386C10.2388 13.5386 10.4615 15.237 10.4615 18.7693C10.4615 20.5392 10.4615 21.7983 9.71815 22.7201C8.86277 23.7823 7.30585 24.0001 5.23077 24.0001Z" fill="#1F1F1F"/>
<path fill-rule="evenodd" clip-rule="evenodd" d="M18.7693 15.3847C15.3847 15.3847 15.3847 15.6407 15.3847 18.7693V18.8001C15.3847 20.1626 15.3847 21.1472 15.7183 21.5632C16.0444 21.9669 17.013 22.154 18.7693 22.154C20.5257 22.154 21.4943 21.9656 21.8204 21.562C22.154 21.1472 22.154 20.1626 22.154 18.7989C22.154 15.6407 22.154 15.3847 18.7693 15.3847ZM18.7693 24.0001C16.6943 24.0001 15.1373 23.7823 14.282 22.7201C13.5386 21.7983 13.5386 20.5404 13.5386 18.8001L14.4617 18.7693H13.5386C13.5386 15.237 13.7613 13.5386 18.7693 13.5386C23.7773 13.5386 24.0001 15.237 24.0001 18.7693C24.0001 20.5392 24.0001 21.7983 23.2567 22.7201C22.4013 23.7823 20.8444 24.0001 18.7693 24.0001Z" fill="#1F1F1F"/>
</svg>
