<svg width="40" height="40" viewBox="0 0 40 40" fill="none" xmlns="http://www.w3.org/2000/svg">
<mask id="mask0_3824_3463" style="mask-type:alpha" maskUnits="userSpaceOnUse" x="0" y="0" width="40" height="40">
<rect width="40" height="40" fill="#D9D9D9"/>
</mask>
<g mask="url(#mask0_3824_3463)">
<path d="M32.7202 35.6839L29.3143 32.3144H30.0002V33.2119C30.0002 33.4877 29.9099 33.7157 29.7293 33.896C29.5488 34.0766 29.3206 34.1669 29.0448 34.1669C28.7686 34.1669 28.5404 34.0766 28.3602 33.896C28.1799 33.7157 28.0898 33.4877 28.0898 33.2119V31.0898L23.6464 26.6464H18.1306C16.8906 26.6464 15.9442 26.1414 15.2914 25.1314C14.6386 24.1214 14.5682 23.0588 15.0802 21.9435L16.2981 19.2981L4.291 7.28018C4.08434 7.0713 3.97837 6.82338 3.97309 6.53644C3.96781 6.24949 4.0742 5.99741 4.29225 5.78018C4.50337 5.56991 4.75087 5.46477 5.03475 5.46477C5.31864 5.46477 5.57059 5.56991 5.79059 5.78018L34.2202 34.2098C34.4196 34.4195 34.522 34.6651 34.5273 34.9464C34.5328 35.2278 34.43 35.4737 34.2189 35.6839C33.9978 35.9012 33.7453 36.0098 33.4614 36.0098C33.1775 36.0098 32.9304 35.9012 32.7202 35.6839ZM30.1839 26.0302L26.8643 22.7106H27.3902C28.1066 22.7962 28.7299 23.1052 29.2602 23.6377C29.7904 24.1699 30.0984 24.7957 30.1839 25.5152V26.0302ZM23.0768 18.9231L16.1914 12.0548H21.8856C22.9256 12.0548 23.7289 12.4559 24.2956 13.2581C24.862 14.0606 24.9227 14.945 24.4777 15.9114L23.0768 18.9231ZM13.3539 35.8335C11.282 35.8335 9.51059 35.0901 8.03975 33.6031C6.56892 32.1164 5.8335 30.3374 5.8335 28.266C5.8335 26.1949 6.5742 24.4187 8.05559 22.9373C9.53725 21.4556 11.3084 20.7148 13.3689 20.7148V22.8248C11.8773 22.8248 10.5975 23.3588 9.52975 24.4269C8.4617 25.4949 7.92767 26.7746 7.92767 28.266C7.92767 29.7577 8.4617 31.0375 9.52975 32.1056C10.5975 33.1734 11.8807 33.7073 13.3793 33.7073C14.8779 33.7073 16.1556 33.1864 17.2123 32.1448C18.2689 31.1031 18.7973 29.7369 18.7973 28.046H20.891C20.891 30.3055 20.1529 32.1682 18.6768 33.6344C17.2004 35.1005 15.4261 35.8335 13.3539 35.8335ZM25.4856 10.8081C24.6939 10.8081 24.0196 10.5305 23.4627 9.97519C22.9057 9.41991 22.6273 8.74644 22.6273 7.95477C22.6273 7.1631 22.9049 6.4888 23.4602 5.93185C24.0152 5.37491 24.6885 5.09644 25.4802 5.09644C26.2718 5.09644 26.9435 5.37407 27.4952 5.92935C28.0468 6.48435 28.3227 7.15769 28.3227 7.94935C28.3227 8.74102 28.0478 9.41533 27.4981 9.97227C26.9481 10.5295 26.2773 10.8081 25.4856 10.8081Z" fill="white"/>
</g>
</svg>
