<svg width="32" height="32" viewBox="0 0 32 32" fill="none" xmlns="http://www.w3.org/2000/svg">
<mask id="mask0_3966_3379" style="mask-type:alpha" maskUnits="userSpaceOnUse" x="0" y="0" width="32" height="32">
<rect width="32" height="32" fill="#D9D9D9"/>
</mask>
<g mask="url(#mask0_3966_3379)">
<path d="M26.176 28.5472L23.4514 25.8515H24V26.5695C24 26.7902 23.9278 26.9726 23.7834 27.1168C23.6389 27.2613 23.4564 27.3335 23.2357 27.3335C23.0148 27.3335 22.8323 27.2613 22.688 27.1168C22.5438 26.9726 22.4717 26.7902 22.4717 26.5695V24.8718L18.917 21.3172H14.5044C13.5124 21.3172 12.7553 20.9132 12.233 20.1052C11.7108 19.2972 11.6545 18.447 12.064 17.5548L13.0384 15.4385L3.43271 5.82415C3.26737 5.65704 3.18259 5.4587 3.17837 5.22915C3.17415 4.99959 3.25926 4.79793 3.43371 4.62415C3.60259 4.45593 3.80059 4.37182 4.02771 4.37182C4.25482 4.37182 4.45637 4.45593 4.63237 4.62415L27.376 27.3678C27.5356 27.5356 27.6175 27.732 27.6217 27.9572C27.6262 28.1823 27.5439 28.3789 27.375 28.5472C27.1981 28.7209 26.9961 28.8078 26.769 28.8078C26.5419 28.8078 26.3443 28.7209 26.176 28.5472ZM24.147 20.8242L21.4914 18.1685H21.912C22.4851 18.2369 22.9838 18.4842 23.408 18.9102C23.8323 19.3359 24.0786 19.8366 24.147 20.4122V20.8242ZM18.4614 15.1385L12.953 9.64382H17.5084C18.3404 9.64382 18.983 9.9647 19.4364 10.6065C19.8895 11.2485 19.938 11.956 19.582 12.7291L18.4614 15.1385ZM10.683 28.6668C9.02548 28.6668 7.60837 28.072 6.43171 26.8825C5.25504 25.6932 4.66671 24.2699 4.66671 22.6128C4.66671 20.9559 5.25926 19.5349 6.44437 18.3498C7.62971 17.1645 9.04659 16.5718 10.695 16.5718V18.2598C9.50171 18.2598 8.47793 18.687 7.62371 19.5415C6.76926 20.3959 6.34204 21.4197 6.34204 22.6128C6.34204 23.8062 6.76926 24.83 7.62371 25.6845C8.47793 26.5387 9.50448 26.9658 10.7034 26.9658C11.9023 26.9658 12.9244 26.5492 13.7697 25.7158C14.615 24.8825 15.0377 23.7895 15.0377 22.4368H16.7127C16.7127 24.2444 16.1223 25.7346 14.9414 26.9075C13.7603 28.0804 12.3408 28.6668 10.683 28.6668ZM20.3884 8.64648C19.755 8.64648 19.2156 8.42437 18.77 7.98015C18.3245 7.53593 18.1017 6.99715 18.1017 6.36381C18.1017 5.73048 18.3238 5.19104 18.768 4.74548C19.212 4.29993 19.7507 4.07715 20.384 4.07715C21.0174 4.07715 21.5547 4.29926 21.996 4.74348C22.4374 5.18748 22.658 5.72615 22.658 6.35948C22.658 6.99282 22.4382 7.53226 21.9984 7.97782C21.5584 8.42359 21.0217 8.64648 20.3884 8.64648Z" fill="#C50004"/>
</g>
</svg>
