<svg width="32" height="32" viewBox="0 0 32 32" fill="none" xmlns="http://www.w3.org/2000/svg">
<mask id="mask0_3807_4417" style="mask-type:alpha" maskUnits="userSpaceOnUse" x="0" y="0" width="32" height="32">
<rect width="32" height="32" fill="#D9D9D9"/>
</mask>
<g mask="url(#mask0_3807_4417)">
<path d="M15.9977 28.923C15.3343 28.923 14.7672 28.687 14.2963 28.215C13.8252 27.743 13.5897 27.1755 13.5897 26.5126H18.4103C18.4103 27.1778 18.1741 27.7458 17.7017 28.2166C17.2292 28.6875 16.6612 28.923 15.9977 28.923ZM6 25.1793V23.5043H8.41033V13.1676C8.41033 11.3663 8.96 9.76454 10.0593 8.36231C11.1589 6.96009 12.5836 6.08176 14.3333 5.72731V4.99998C14.3333 4.53709 14.4952 4.14354 14.819 3.81931C15.1428 3.49531 15.5359 3.33331 15.9983 3.33331C16.4397 3.33331 16.8152 3.47887 17.125 3.76998C17.4348 4.06087 17.6108 4.41676 17.653 4.83765V4.89231C17.4194 5.2632 17.228 5.65065 17.0787 6.05465C16.9293 6.45865 16.8237 6.88031 16.7617 7.31965C16.6339 7.29231 16.5098 7.27431 16.3893 7.26565C16.2691 7.2572 16.1393 7.25298 16 7.25298C14.3629 7.25298 12.9679 7.82942 11.815 8.98231C10.6619 10.1354 10.0853 11.5305 10.0853 13.1676V23.5043H21.9147V14.7306C22.1876 14.7831 22.4647 14.8213 22.746 14.8453C23.0276 14.8693 23.3088 14.8679 23.5897 14.841V23.5043H26V25.1793H6ZM20.5133 10.922C19.8327 10.2402 19.4923 9.41242 19.4923 8.43865C19.4923 7.46465 19.8331 6.63742 20.5147 5.95698C21.1964 5.27631 22.0242 4.93598 22.998 4.93598C23.972 4.93598 24.7993 5.27687 25.48 5.95865C26.1604 6.6402 26.5007 7.46787 26.5007 8.44165C26.5007 9.41565 26.1599 10.243 25.4783 10.9236C24.7966 11.6041 23.9688 11.9443 22.995 11.9443C22.021 11.9443 21.1938 11.6035 20.5133 10.922Z" fill="#1C1B1F"/>
</g>
</svg>
