<svg width="16" height="16" viewBox="0 0 16 16" fill="none" xmlns="http://www.w3.org/2000/svg">
<mask id="mask0_2274_901" style="mask-type:alpha" maskUnits="userSpaceOnUse" x="0" y="0" width="16" height="16">
<rect width="16" height="16" fill="#D9D9D9"/>
</mask>
<g mask="url(#mask0_2274_901)">
<path d="M10.1923 7.02567H10.782V5.8975H12.1667C12.3661 5.8975 12.5356 5.82767 12.6752 5.688C12.8148 5.54844 12.8847 5.37894 12.8847 5.1795V4.359C12.8847 4.15956 12.8148 3.99006 12.6752 3.8505C12.5356 3.71083 12.3661 3.641 12.1667 3.641H10.1923V7.02567ZM10.782 5.30767V4.23083H12.2948V5.30767H10.782ZM9.077 8.66667C8.77011 8.66667 8.51389 8.56389 8.30833 8.35833C8.10278 8.15278 8 7.89517 8 7.5855V3.08117C8 2.7715 8.10278 2.51389 8.30833 2.30833C8.51389 2.10278 8.7715 2 9.08117 2H13.5855C13.8952 2 14.1528 2.10278 14.3583 2.30833C14.5639 2.51389 14.6667 2.7715 14.6667 3.08117V7.5855C14.6667 7.89517 14.5639 8.15278 14.3583 8.35833C14.1528 8.56389 13.8966 8.66667 13.5897 8.66667H11.6667V13.3333H11V8.66667H9.077ZM9.077 8H13.5897C13.7093 8 13.8077 7.96156 13.8847 7.88467C13.9616 7.80767 14 7.70933 14 7.58967V3.077C14 2.95733 13.9616 2.859 13.8847 2.782C13.8077 2.70511 13.7093 2.66667 13.5897 2.66667H9.077C8.95733 2.66667 8.859 2.70511 8.782 2.782C8.70511 2.859 8.66667 2.95733 8.66667 3.077V7.58967C8.66667 7.70933 8.70511 7.80767 8.782 7.88467C8.859 7.96156 8.95733 8 9.077 8ZM6.37183 13.3333C6.27739 13.3333 6.19822 13.3014 6.13433 13.2375C6.07044 13.1736 6.0385 13.0944 6.0385 13V12H2V11.3333H6.19233V8.1025H2V7.43583H5.91533L4.93333 4.66667H2V4H5.08967C5.19067 4 5.28233 4.03056 5.36467 4.09167C5.447 4.15278 5.50406 4.23333 5.53583 4.33333L6.859 8.1025V13C6.859 13.0944 6.82706 13.1736 6.76317 13.2375C6.69928 13.3014 6.62011 13.3333 6.52567 13.3333H6.37183ZM4.58 10.4615C4.78733 10.4615 4.96261 10.3889 5.10583 10.2438C5.24894 10.0986 5.3205 9.92233 5.3205 9.715C5.3205 9.50756 5.24789 9.33228 5.10267 9.18917C4.95756 9.04594 4.78128 8.97433 4.57383 8.97433C4.3665 8.97433 4.19122 9.04694 4.048 9.19217C3.90489 9.33728 3.83333 9.51356 3.83333 9.721C3.83333 9.92833 3.90594 10.1036 4.05117 10.2468C4.19628 10.3899 4.37256 10.4615 4.58 10.4615Z" fill="#1F1F1F"/>
</g>
</svg>
