<svg width="40" height="40" viewBox="0 0 40 40" fill="none" xmlns="http://www.w3.org/2000/svg">
<g clip-path="url(#clip0_2497_2489)">
<path d="M20.0001 9.99998C21.841 9.99998 23.3334 8.5076 23.3334 6.66665C23.3334 4.8257 21.841 3.33331 20.0001 3.33331C18.1591 3.33331 16.6667 4.8257 16.6667 6.66665C16.6667 8.5076 18.1591 9.99998 20.0001 9.99998Z" fill="white"/>
<path d="M26.4834 13.5166C25.8334 12.8666 24.7167 11.6666 22.5501 11.6666C22.2001 11.6666 20.1834 11.6666 18.3167 11.6666C14.2167 11.65 10.8001 8.66665 10.1167 4.74998C9.98339 3.93331 9.30006 3.33331 8.48339 3.33331C7.46673 3.33331 6.66673 4.23331 6.81673 5.23331C7.55006 9.66665 10.7834 13.25 15.0001 14.5167V35C15.0001 35.9167 15.7501 36.6667 16.6667 36.6667C17.5834 36.6667 18.3334 35.9167 18.3334 35V26.6667H21.6667V35C21.6667 35.9167 22.4167 36.6667 23.3334 36.6667C24.2501 36.6667 25.0001 35.9167 25.0001 35V16.75L30.4001 22.15C31.0501 22.8 32.1001 22.8 32.7501 22.15C33.4001 21.5 33.4001 20.45 32.7501 19.8L26.4834 13.5166Z" fill="white"/>
</g>
<defs>
<clipPath id="clip0_2497_2489">
<rect width="40" height="40" fill="white"/>
</clipPath>
</defs>
</svg>
