<svg width="24" height="24" viewBox="0 0 24 24" fill="none" xmlns="http://www.w3.org/2000/svg">
<mask id="mask0_4344_5338" style="mask-type:alpha" maskUnits="userSpaceOnUse" x="0" y="0" width="24" height="24">
<rect width="24" height="24" fill="#D9D9D9"/>
</mask>
<g mask="url(#mask0_4344_5338)">
<path d="M8.5 21.3075V16.4845H8.4135C6.775 16.4025 5.37983 15.7929 4.228 14.6558C3.076 13.5186 2.5 12.1334 2.5 10.5C2.5 8.82436 3.08108 7.40702 4.24325 6.24802C5.40542 5.08919 6.82433 4.50977 8.5 4.50977H9.85775L8.023 2.65977L9.077 1.60577L12.7308 5.25977L9.077 8.91352L8.023 7.85978L9.85775 6.00952H8.5C7.25 6.00952 6.1875 6.44544 5.3125 7.31727C4.4375 8.18911 4 9.25002 4 10.5C4 11.7692 4.46475 12.8365 5.39425 13.702C6.32375 14.5674 7.43275 15 8.72125 15H10V17.6845L12.675 15H15.5C16.75 15 17.8141 14.5625 18.6923 13.6875C19.5704 12.8125 20.0095 11.75 20.0095 10.5C20.0095 9.25002 19.5704 8.18752 18.6923 7.31252C17.8141 6.43752 16.75 6.00002 15.5 6.00002H15.0962V4.50002H15.5C17.1757 4.50002 18.5962 5.08111 19.7615 6.24327C20.9268 7.40544 21.5095 8.82436 21.5095 10.5C21.5095 12.1757 20.9268 13.5946 19.7615 14.7568C18.5962 15.9189 17.1757 16.5 15.5 16.5H13.3077L8.5 21.3075Z" fill="#1C1B1F"/>
</g>
</svg>
