<svg width="32" height="32" viewBox="0 0 32 32" fill="none" xmlns="http://www.w3.org/2000/svg">
<g clip-path="url(#clip0_5289_6165)">
<mask id="mask0_5289_6165" style="mask-type:luminance" maskUnits="userSpaceOnUse" x="0" y="0" width="32" height="32">
<path d="M32 0H0V32H32V0Z" fill="white"/>
</mask>
<g mask="url(#mask0_5289_6165)">
<path d="M16 28C22.6275 28 28 22.6274 28 16C28 9.37259 22.6275 4 16 4C9.37259 4 4 9.37259 4 16C4 17.9835 4.48124 19.8546 5.33333 21.503L4 28L10.4971 26.6667C12.1454 27.5187 14.0165 28 16 28Z" stroke="#0568A6" stroke-width="1.5" stroke-linecap="round" stroke-linejoin="round"/>
<path d="M10.01 16H10V16.01H10.01V16Z" stroke="#0568A6" stroke-width="2.25" stroke-linejoin="round"/>
<path d="M16.01 16H16V16.01H16.01V16Z" stroke="#0568A6" stroke-width="2.25" stroke-linejoin="round"/>
<path d="M22.01 16H22V16.01H22.01V16Z" stroke="#0568A6" stroke-width="2.25" stroke-linejoin="round"/>
</g>
</g>
<defs>
<clipPath id="clip0_5289_6165">
<rect width="32" height="32" fill="white"/>
</clipPath>
</defs>
</svg>
