<svg width="16" height="16" viewBox="0 0 16 16" fill="none" xmlns="http://www.w3.org/2000/svg">
<mask id="mask0_3148_3426" style="mask-type:alpha" maskUnits="userSpaceOnUse" x="0" y="0" width="16" height="16">
<rect width="16" height="16" fill="#D9D9D9"/>
</mask>
<g mask="url(#mask0_3148_3426)">
<path d="M4.66669 14.6667V8.56667C4.10002 8.41111 3.62502 8.1 3.24169 7.63334C2.85835 7.16667 2.66669 6.62222 2.66669 6V1.33334H4.00002V6H4.66669V1.33334H6.00002V6H6.66669V1.33334H8.00002V6C8.00002 6.62222 7.80835 7.16667 7.42502 7.63334C7.04169 8.1 6.56669 8.41111 6.00002 8.56667V14.6667H4.66669ZM11.3334 14.6667V9.33334H9.33335V4.66667C9.33335 3.74445 9.65835 2.95834 10.3084 2.30834C10.9584 1.65834 11.7445 1.33334 12.6667 1.33334V14.6667H11.3334Z" fill="white"/>
</g>
</svg>
