<svg width="40" height="40" viewBox="0 0 40 40" fill="none" xmlns="http://www.w3.org/2000/svg">
<mask id="mask0_3163_3962" style="mask-type:alpha" maskUnits="userSpaceOnUse" x="0" y="0" width="40" height="40">
<rect width="40" height="40" fill="#D9D9D9"/>
</mask>
<g mask="url(#mask0_3163_3962)">
<path d="M10.7398 28.0537C10.2485 27.7804 9.86332 27.4115 9.58443 26.947C9.30554 26.4826 9.1661 25.9616 9.1661 25.3841V18.1533L5.83943 16.3137C5.56582 16.1576 5.36499 15.9677 5.23693 15.7441C5.1086 15.5208 5.04443 15.2725 5.04443 14.9991C5.04443 14.7258 5.1086 14.4776 5.23693 14.2545C5.36499 14.0312 5.56582 13.8415 5.83943 13.6854L18.5644 6.75203C18.7903 6.62648 19.0229 6.53426 19.2623 6.47537C19.5018 6.41676 19.7475 6.38745 19.9994 6.38745C20.2514 6.38745 20.4971 6.41676 20.7365 6.47537C20.976 6.53426 21.2089 6.62634 21.4353 6.75162L35.8069 14.5733C36.0633 14.7122 36.26 14.9 36.3969 15.1366C36.5336 15.3736 36.6019 15.6291 36.6019 15.9033V25.7366C36.6019 26.0908 36.4821 26.3877 36.2423 26.6275C36.0026 26.8669 35.7057 26.9866 35.3515 26.9866C34.9971 26.9866 34.7003 26.8669 34.4611 26.6275C34.2216 26.3877 34.1019 26.0908 34.1019 25.7366V16.3841L30.8328 18.1533V25.3841C30.8328 25.9616 30.6933 26.4826 30.4144 26.947C30.1355 27.4115 29.7504 27.7804 29.259 28.0537L21.4386 32.2816C21.21 32.4097 20.976 32.5032 20.7365 32.562C20.4971 32.6207 20.2514 32.65 19.9994 32.65C19.7475 32.65 19.5018 32.6207 19.2623 32.562C19.0229 32.5032 18.7889 32.4097 18.5603 32.2816L10.7398 28.0537ZM19.8069 21.07C19.8819 21.1127 19.9487 21.1341 20.0073 21.1341C20.0662 21.1341 20.133 21.1127 20.2078 21.07L31.4003 14.9995L20.2078 8.94495C20.133 8.90217 20.0662 8.88079 20.0073 8.88079C19.9487 8.88079 19.8819 8.90217 19.8069 8.94495L8.5986 14.9995L19.8069 21.07ZM19.7911 30.1179C19.8658 30.1607 19.9353 30.182 19.9994 30.182C20.0636 30.182 20.133 30.1607 20.2078 30.1179L28.0923 25.8583C28.1779 25.805 28.2393 25.7436 28.2765 25.6741C28.314 25.6047 28.3328 25.5165 28.3328 25.4095V19.4866L21.464 23.2591C21.2354 23.3872 20.9983 23.4806 20.7528 23.5395C20.5069 23.5984 20.2558 23.6279 19.9994 23.6279C19.743 23.6279 19.4919 23.5984 19.2461 23.5395C19.0005 23.4806 18.7635 23.3872 18.5348 23.2591L11.6661 19.4866V25.4095C11.6661 25.4951 11.6848 25.578 11.7223 25.6583C11.7596 25.7383 11.821 25.805 11.9065 25.8583L19.7911 30.1179Z" fill="white"/>
</g>
</svg>
