<svg width="30" height="30" viewBox="0 0 30 30" fill="none" xmlns="http://www.w3.org/2000/svg">
<mask id="mask0_3109_2867" style="mask-type:alpha" maskUnits="userSpaceOnUse" x="0" y="0" width="30" height="30">
<rect width="30" height="30" fill="#D9D9D9"/>
</mask>
<g mask="url(#mask0_3109_2867)">
<path d="M11.5624 27.5007L11.0624 23.5007C10.7916 23.3966 10.5364 23.2716 10.2968 23.1257C10.0572 22.9799 9.82285 22.8237 9.59369 22.657L5.87494 24.2195L2.43744 18.282L5.65619 15.8445C5.63536 15.6987 5.62494 15.558 5.62494 15.4226V14.5789C5.62494 14.4434 5.63536 14.3028 5.65619 14.157L2.43744 11.7195L5.87494 5.78198L9.59369 7.34448C9.82285 7.17782 10.0624 7.02157 10.3124 6.87573C10.5624 6.7299 10.8124 6.6049 11.0624 6.50073L11.5624 2.50073H18.4374L18.9374 6.50073C19.2083 6.6049 19.4635 6.7299 19.7031 6.87573C19.9426 7.02157 20.177 7.17782 20.4062 7.34448L24.1249 5.78198L27.5624 11.7195L24.3437 14.157C24.3645 14.3028 24.3749 14.4434 24.3749 14.5789V15.4226C24.3749 15.558 24.3541 15.6987 24.3124 15.8445L27.5312 18.282L24.0937 24.2195L20.4062 22.657C20.177 22.8237 19.9374 22.9799 19.6874 23.1257C19.4374 23.2716 19.1874 23.3966 18.9374 23.5007L18.4374 27.5007H11.5624ZM13.7499 25.0007H16.2187L16.6562 21.6882C17.302 21.5216 17.901 21.2768 18.4531 20.9539C19.0051 20.6309 19.5104 20.2403 19.9687 19.782L23.0624 21.0632L24.2812 18.9382L21.5937 16.907C21.6979 16.6153 21.7708 16.308 21.8124 15.9851C21.8541 15.6622 21.8749 15.3341 21.8749 15.0007C21.8749 14.6674 21.8541 14.3393 21.8124 14.0164C21.7708 13.6934 21.6979 13.3862 21.5937 13.0945L24.2812 11.0632L23.0624 8.93823L19.9687 10.2507C19.5104 9.77157 19.0051 9.37053 18.4531 9.04761C17.901 8.72469 17.302 8.4799 16.6562 8.31323L16.2499 5.00073H13.7812L13.3437 8.31323C12.6979 8.4799 12.0989 8.72469 11.5468 9.04761C10.9947 9.37053 10.4895 9.76115 10.0312 10.2195L6.93744 8.93823L5.71869 11.0632L8.40619 13.0632C8.30202 13.3757 8.2291 13.6882 8.18744 14.0007C8.14577 14.3132 8.12494 14.6466 8.12494 15.0007C8.12494 15.3341 8.14577 15.657 8.18744 15.9695C8.2291 16.282 8.30202 16.5945 8.40619 16.907L5.71869 18.9382L6.93744 21.0632L10.0312 19.7507C10.4895 20.2299 10.9947 20.6309 11.5468 20.9539C12.0989 21.2768 12.6979 21.5216 13.3437 21.6882L13.7499 25.0007ZM15.0624 19.3757C16.2708 19.3757 17.302 18.9487 18.1562 18.0945C19.0104 17.2403 19.4374 16.2091 19.4374 15.0007C19.4374 13.7924 19.0104 12.7612 18.1562 11.907C17.302 11.0528 16.2708 10.6257 15.0624 10.6257C13.8333 10.6257 12.7968 11.0528 11.9531 11.907C11.1093 12.7612 10.6874 13.7924 10.6874 15.0007C10.6874 16.2091 11.1093 17.2403 11.9531 18.0945C12.7968 18.9487 13.8333 19.3757 15.0624 19.3757Z" fill="#0568A6"/>
</g>
</svg>
