<svg width="24" height="24" viewBox="0 0 24 24" fill="none" xmlns="http://www.w3.org/2000/svg">
<path d="M8.96754 13.7981L14.5406 17.0457M14.5325 8.08629L8.96754 11.3339M19.0938 6.85417C19.0938 8.20611 17.9978 9.30208 16.6458 9.30208C15.2939 9.30208 14.1979 8.20611 14.1979 6.85417C14.1979 5.50222 15.2939 4.40625 16.6458 4.40625C17.9978 4.40625 19.0938 5.50222 19.0938 6.85417ZM9.30208 12.566C9.30208 13.9179 8.20611 15.0139 6.85417 15.0139C5.50222 15.0139 4.40625 13.9179 4.40625 12.566C4.40625 11.214 5.50222 10.1181 6.85417 10.1181C8.20611 10.1181 9.30208 11.214 9.30208 12.566ZM19.0938 18.2778C19.0938 19.6297 17.9978 20.7257 16.6458 20.7257C15.2939 20.7257 14.1979 19.6297 14.1979 18.2778C14.1979 16.9258 15.2939 15.8299 16.6458 15.8299C17.9978 15.8299 19.0938 16.9258 19.0938 18.2778Z" stroke="#0568A6" stroke-width="1.5" stroke-linecap="round" stroke-linejoin="round"/>
</svg>
