<svg width="18" height="18" viewBox="0 0 18 18" fill="none" xmlns="http://www.w3.org/2000/svg">
<mask id="mask0_2274_830" style="mask-type:alpha" maskUnits="userSpaceOnUse" x="0" y="0" width="18" height="18">
<rect width="18" height="18" fill="#D9D9D9"/>
</mask>
<g mask="url(#mask0_2274_830)">
<path d="M4.87499 13.125H7.44374V10.6313H9.37499V8.1375H11.3062V5.625H13.125V4.875H10.5562V7.36875H8.62499V9.8625H6.69374V12.375H4.87499V13.125ZM4.21162 15C3.86637 15 3.57812 14.8844 3.34687 14.6531C3.11562 14.4219 2.99999 14.1336 2.99999 13.7884V4.21162C2.99999 3.86637 3.11562 3.57812 3.34687 3.34688C3.57812 3.11563 3.86637 3 4.21162 3H13.7884C14.1336 3 14.4219 3.11563 14.6531 3.34688C14.8844 3.57812 15 3.86637 15 4.21162V13.7884C15 14.1336 14.8844 14.4219 14.6531 14.6531C14.4219 14.8844 14.1336 15 13.7884 15H4.21162ZM4.21162 14.25H13.7884C13.9039 14.25 14.0097 14.2019 14.1058 14.1058C14.2019 14.0097 14.25 13.9039 14.25 13.7884V4.21162C14.25 4.09612 14.2019 3.99031 14.1058 3.89419C14.0097 3.79806 13.9039 3.75 13.7884 3.75H4.21162C4.09612 3.75 3.9903 3.79806 3.89418 3.89419C3.79805 3.99031 3.74999 4.09612 3.74999 4.21162V13.7884C3.74999 13.9039 3.79805 14.0097 3.89418 14.1058C3.9903 14.2019 4.09612 14.25 4.21162 14.25Z" fill="#1F1F1F"/>
</g>
</svg>
