<svg width="26" height="24" viewBox="0 0 26 24" fill="none" xmlns="http://www.w3.org/2000/svg">
<path d="M7.21551 5.77729L10.8871 0.877058C11.1144 0.572824 11.3811 0.350584 11.6871 0.210353C11.9929 0.0701222 12.321 0 12.6711 0C13.0213 0 13.3493 0.0701222 13.6553 0.210353C13.9612 0.350584 14.2281 0.572824 14.4554 0.877058L18.1269 5.77729L23.7856 7.70753C24.2872 7.87789 24.6734 8.16166 24.9443 8.55882C25.215 8.956 25.3505 9.39718 25.3505 9.88235C25.3505 10.1103 25.3184 10.3338 25.2543 10.5529C25.1903 10.7721 25.0824 10.9838 24.9309 11.1882L21.2213 16.2325L21.3622 21.6407C21.3857 22.3014 21.1655 22.8598 20.7016 23.316C20.2376 23.772 19.7026 24 19.0962 24C19.1035 24 18.8904 23.9737 18.4569 23.9214L12.6711 22.2109L6.88534 23.9214C6.76806 23.9683 6.65688 23.9933 6.55205 23.9958C6.44746 23.9986 6.3455 24 6.24617 24C5.62172 24 5.08212 23.772 4.62712 23.316C4.17237 22.8598 3.95672 22.3014 3.98017 21.6407L4.12091 16.1971L0.41957 11.1882C0.267945 10.9838 0.160121 10.7721 0.096096 10.5529C0.0320714 10.3338 0 10.1103 0 9.88235C0 9.40282 0.138581 8.95988 0.415742 8.55353C0.692783 8.14718 1.08219 7.85623 1.58386 7.68071L7.21551 5.77729ZM8.10073 6.99106L2.05764 9.03247C1.78683 9.12306 1.60181 9.30858 1.5026 9.58906C1.40328 9.86976 1.44396 10.1277 1.62443 10.3631L5.5559 15.7847L5.38812 21.6571C5.37005 21.9647 5.47823 22.2089 5.71291 22.3898C5.94759 22.571 6.20931 22.6163 6.4982 22.5257L12.6711 20.7475L18.8442 22.5611C19.1331 22.6517 19.3948 22.6063 19.6295 22.4251C19.864 22.2442 19.9723 22 19.9543 21.6925L19.7865 15.7847L23.7181 10.4337C23.8984 10.1983 23.9391 9.94038 23.8398 9.65965C23.7406 9.37918 23.5554 9.19366 23.2847 9.10306L17.2416 6.99106L13.3481 1.79189C13.1856 1.55658 12.96 1.43894 12.6711 1.43894C12.3822 1.43894 12.1568 1.55658 11.9944 1.79189L8.10073 6.99106Z" fill="#1C1B1F"/>
</svg>
