<svg width="26" height="24" viewBox="0 0 26 24" fill="none" xmlns="http://www.w3.org/2000/svg">
<path d="M7.05932 5.5579L10.5733 0.978948C10.8243 0.642106 11.1223 0.394736 11.4675 0.236842C11.8126 0.0789474 12.1734 0 12.5499 0C12.9264 0 13.2872 0.0789474 13.6323 0.236842C13.9775 0.394736 14.2754 0.642106 14.5265 0.978948L18.0405 5.5579L23.3741 7.3579C23.918 7.52632 24.3468 7.83684 24.6605 8.28947C24.9743 8.74211 25.1311 9.2421 25.1311 9.78948C25.1311 10.0421 25.0945 10.2947 25.0213 10.5474C24.9482 10.8 24.8279 11.0421 24.6605 11.2737L21.2093 16.2L21.3348 21.379C21.3557 22.1158 21.1152 22.7369 20.6132 23.2421C20.1111 23.7474 19.5256 24 18.8563 24C18.8144 24 18.5842 23.9684 18.166 23.9053L12.5499 22.3264L6.93382 23.9053C6.82923 23.9473 6.71419 23.9737 6.58869 23.9842C6.46319 23.9947 6.34815 24 6.24357 24C5.57424 24 4.98858 23.7474 4.48658 23.2421C3.98459 22.7369 3.74405 22.1158 3.76497 21.379L3.89047 16.1684L0.47062 11.2737C0.303289 11.0421 0.183019 10.8 0.109812 10.5474C0.0366039 10.2947 0 10.0421 0 9.78948C0 9.26316 0.151645 8.77368 0.454934 8.32105C0.758222 7.86842 1.18178 7.54736 1.72561 7.3579L7.05932 5.5579Z" fill="#0568A6"/>
</svg>
