<svg width="40" height="40" viewBox="0 0 40 40" fill="none" xmlns="http://www.w3.org/2000/svg">
<mask id="mask0_4171_4816" style="mask-type:alpha" maskUnits="userSpaceOnUse" x="0" y="0" width="40" height="40">
<rect width="40" height="40" fill="#D9D9D9"/>
</mask>
<g mask="url(#mask0_4171_4816)">
<path d="M13.1609 11.3104L17.7726 5.25126C18.062 4.87238 18.3988 4.59404 18.783 4.41626C19.1672 4.23848 19.5736 4.1496 20.0022 4.1496C20.4311 4.1496 20.8368 4.23848 21.2192 4.41626C21.6017 4.59404 21.9379 4.87238 22.2276 5.25126L26.8392 11.3104L33.8901 13.6946C34.5067 13.899 34.9862 14.2522 35.3284 14.7542C35.6706 15.2564 35.8417 15.8125 35.8417 16.4225C35.8417 16.7064 35.8011 16.9889 35.7197 17.27C35.6383 17.5514 35.5034 17.8172 35.3151 18.0675L30.7488 24.4321L30.9155 31.2308C30.9319 32.047 30.6577 32.7403 30.093 33.3108C29.528 33.8814 28.8616 34.1667 28.0938 34.1667C28.0727 34.1667 27.8122 34.1303 27.3122 34.0575L20.0001 31.9617L12.6926 34.0558C12.5506 34.1125 12.4102 34.1452 12.2713 34.1538C12.1327 34.1624 12.0019 34.1667 11.8788 34.1667C11.0994 34.1667 10.4319 33.8806 9.87633 33.3083C9.32078 32.7364 9.05689 32.0346 9.08466 31.2029L9.25133 24.3892L4.683 18.0504C4.50189 17.7913 4.3705 17.522 4.28883 17.2425C4.20744 16.9631 4.16675 16.681 4.16675 16.3963C4.16675 15.796 4.33841 15.2445 4.68175 14.7417C5.0248 14.2392 5.50633 13.8847 6.12633 13.6783L13.1609 11.3104ZM14.4497 13.1154L6.52133 15.7779C6.36105 15.8313 6.25161 15.9407 6.193 16.1063C6.13411 16.2718 6.15814 16.424 6.26508 16.5629L11.3784 23.7917L11.1784 31.5642C11.1679 31.7458 11.232 31.8882 11.3709 31.9913C11.5098 32.0946 11.6647 32.1232 11.8355 32.0771L20.0001 29.7746L28.1647 32.1188C28.3355 32.1649 28.4904 32.1363 28.6292 32.0329C28.7681 31.9299 28.8323 31.7875 28.8217 31.6058L28.6217 23.7917L33.7351 16.6463C33.842 16.5074 33.8661 16.3552 33.8072 16.1896C33.7486 16.024 33.6391 15.9146 33.4788 15.8613L25.5505 13.1154L20.4009 6.34418C20.3045 6.20529 20.1709 6.13585 20.0001 6.13585C19.8292 6.13585 19.6956 6.20529 19.5992 6.34418L14.4497 13.1154Z" fill="white"/>
</g>
</svg>
