<svg width="30" height="30" viewBox="0 0 30 30" fill="none" xmlns="http://www.w3.org/2000/svg">
<mask id="mask0_3087_2751" style="mask-type:alpha" maskUnits="userSpaceOnUse" x="0" y="0" width="30" height="30">
<rect width="30" height="30" fill="#D9D9D9"/>
</mask>
<g mask="url(#mask0_3087_2751)">
<path d="M15.0027 19.4712C16.4192 19.4712 17.6222 18.9755 18.6118 17.9841C19.6014 16.9926 20.0962 15.7886 20.0962 14.3722C20.0962 12.9557 19.6004 11.7527 18.609 10.7631C17.6175 9.77354 16.4136 9.27875 14.9971 9.27875C13.5807 9.27875 12.3776 9.77448 11.3881 10.7659C10.3985 11.7574 9.90368 12.9614 9.90368 14.3778C9.90368 15.7943 10.3994 16.9973 11.3909 17.9869C12.3823 18.9765 13.5863 19.4712 15.0027 19.4712ZM14.9999 17.75C14.0624 17.75 13.2656 17.4219 12.6093 16.7656C11.9531 16.1094 11.6249 15.3125 11.6249 14.375C11.6249 13.4375 11.9531 12.6406 12.6093 11.9844C13.2656 11.3281 14.0624 11 14.9999 11C15.9374 11 16.7343 11.3281 17.3906 11.9844C18.0468 12.6406 18.3749 13.4375 18.3749 14.375C18.3749 15.3125 18.0468 16.1094 17.3906 16.7656C16.7343 17.4219 15.9374 17.75 14.9999 17.75ZM15.0015 23.125C12.1271 23.125 9.50805 22.3321 7.1443 20.7463C4.78055 19.1606 3.04013 17.0369 1.92305 14.375C3.04013 11.7131 4.77992 9.58938 7.14242 8.00375C9.50513 6.41792 12.1238 5.625 14.9984 5.625C17.8727 5.625 20.4918 6.41792 22.8556 8.00375C25.2193 9.58938 26.9597 11.7131 28.0768 14.375C26.9597 17.0369 25.2199 19.1606 22.8574 20.7463C20.4947 22.3321 17.8761 23.125 15.0015 23.125ZM14.9999 21.25C17.3541 21.25 19.5156 20.6302 21.4843 19.3906C23.4531 18.151 24.9583 16.4792 25.9999 14.375C24.9583 12.2708 23.4531 10.599 21.4843 9.35938C19.5156 8.11979 17.3541 7.5 14.9999 7.5C12.6458 7.5 10.4843 8.11979 8.51555 9.35938C6.5468 10.599 5.04159 12.2708 3.99993 14.375C5.04159 16.4792 6.5468 18.151 8.51555 19.3906C10.4843 20.6302 12.6458 21.25 14.9999 21.25Z" fill="#0568A6"/>
</g>
</svg>
