<svg width="24" height="24" viewBox="0 0 24 24" fill="none" xmlns="http://www.w3.org/2000/svg">
<mask id="mask0_4251_5793" style="mask-type:alpha" maskUnits="userSpaceOnUse" x="0" y="0" width="24" height="24">
<rect width="24" height="24" fill="#D9D9D9"/>
</mask>
<g mask="url(#mask0_4251_5793)">
<path d="M14.0385 20.1095V18.5595C15.4808 18.1007 16.6427 17.2673 17.524 16.0595C18.4055 14.8518 18.8463 13.4903 18.8463 11.975C18.8463 10.4597 18.4055 9.09817 17.524 7.8905C16.6427 6.68267 15.4808 5.84933 14.0385 5.3905V3.8405C15.9 4.33917 17.4167 5.3385 18.5885 6.8385C19.7602 8.3385 20.346 10.0507 20.346 11.975C20.346 13.8993 19.7602 15.6115 18.5885 17.1115C17.4167 18.6115 15.9 19.6108 14.0385 20.1095ZM3.65401 14.5V9.5H7.36551L11.6538 5.21175V18.7883L7.36551 14.5H3.65401ZM14.0385 15.6538V8.29625C14.7128 8.66292 15.234 9.17925 15.602 9.84525C15.9698 10.5113 16.1538 11.2295 16.1538 12C16.1538 12.7602 15.9682 13.4675 15.597 14.122C15.2258 14.7765 14.7063 15.2871 14.0385 15.6538ZM10.1538 8.85L8.00376 11H5.15376V13H8.00376L10.1538 15.15V8.85Z" fill="#1F1F1F"/>
</g>
</svg>
