<svg width="24" height="24" viewBox="0 0 24 24" fill="none" xmlns="http://www.w3.org/2000/svg">
<mask id="mask0_4251_5869" style="mask-type:alpha" maskUnits="userSpaceOnUse" x="0" y="0" width="24" height="24">
<rect width="24" height="24" fill="#D9D9D9"/>
</mask>
<g mask="url(#mask0_4251_5869)">
<path d="M19.473 22.1385L16.4577 19.123C16.1116 19.3448 15.7468 19.5372 15.3635 19.7C14.9802 19.8628 14.5833 19.9993 14.173 20.1095V18.5595C14.3872 18.4827 14.5955 18.4042 14.798 18.324C15.0007 18.2438 15.1923 18.1487 15.373 18.0385L11.7885 14.4537V18.7882L7.5 14.5H3.7885V9.49999H6.83475L1.99625 4.66149L3.05 3.60774L20.5267 21.0845L19.473 22.1385ZM18.9845 16.7327L17.9095 15.6577C18.257 15.1154 18.5224 14.5337 18.7057 13.9125C18.8891 13.2913 18.9807 12.6455 18.9807 11.975C18.9807 10.4597 18.5401 9.09816 17.6587 7.89049C16.7772 6.68266 15.6153 5.84933 14.173 5.39049V3.84049C16.041 4.33916 17.5592 5.33849 18.7277 6.83849C19.8964 8.33849 20.4807 10.0507 20.4807 11.975C20.4807 12.852 20.3503 13.694 20.0895 14.501C19.8285 15.308 19.4602 16.0519 18.9845 16.7327ZM15.923 13.6712L14.173 11.9212V8.29624C14.8473 8.66291 15.3685 9.17924 15.7365 9.84524C16.1045 10.5112 16.2885 11.2295 16.2885 12C16.2885 12.2948 16.258 12.5823 16.197 12.8625C16.1362 13.1427 16.0448 13.4122 15.923 13.6712ZM11.7885 9.53649L9.63075 7.36924L11.7885 5.21174V9.53649ZM10.2885 15.15V12.9537L8.33475 11H5.2885V13H8.1385L10.2885 15.15Z" fill="white"/>
</g>
</svg>
