<svg width="32" height="32" viewBox="0 0 32 32" fill="none" xmlns="http://www.w3.org/2000/svg">
<mask id="mask0_4059_3629" style="mask-type:alpha" maskUnits="userSpaceOnUse" x="0" y="0" width="32" height="32">
<rect width="32" height="32" fill="#D9D9D9"/>
</mask>
<g mask="url(#mask0_4059_3629)">
<path d="M2.4873 27.3333L16 4L29.5126 27.3333H2.4873ZM5.38297 25.658H26.617L16 7.35033L5.38297 25.658ZM16.7146 23.526C16.89 23.3478 16.9776 23.1307 16.9776 22.8747C16.9776 22.6187 16.8885 22.4029 16.7103 22.2273C16.5323 22.0518 16.3153 21.964 16.0593 21.964C15.8033 21.964 15.5875 22.0531 15.412 22.2313C15.2364 22.4096 15.1486 22.6267 15.1486 22.8827C15.1486 23.1387 15.2378 23.3544 15.416 23.53C15.5942 23.7053 15.8113 23.793 16.0673 23.793C16.3233 23.793 16.5391 23.704 16.7146 23.526ZM15.2256 20.4547H16.9006V13.3913H15.2256V20.4547Z" fill="#C50004"/>
</g>
</svg>
