<svg width="16" height="16" viewBox="0 0 16 16" fill="none" xmlns="http://www.w3.org/2000/svg">
<path d="M10 1.5C9.17773 1.5 8.5 2.17773 8.5 3C8.5 3.82227 9.17773 4.5 10 4.5C10.8223 4.5 11.5 3.82227 11.5 3C11.5 2.17773 10.8223 1.5 10 1.5ZM10 2.5C10.2812 2.5 10.5 2.71875 10.5 3C10.5 3.28125 10.2812 3.5 10 3.5C9.71875 3.5 9.5 3.28125 9.5 3C9.5 2.71875 9.71875 2.5 10 2.5ZM7.26562 3.89062L5.46875 4.09375C5.17188 4.12695 4.91211 4.29492 4.75 4.54688L3.5 6.48438L4.34375 7.01562L5.59375 5.09375L6.73438 4.96875L6 7.04688C4.30859 7.29102 3 8.74219 3 10.5C3 12.4277 4.57227 14 6.5 14C8.42773 14 10 12.4277 10 10.5C10 10.3301 9.97656 10.1641 9.95312 10H10.5938L11.2656 13.0469L12.2344 12.8281L11.5781 9.78125C11.4785 9.32422 11.0605 9 10.5938 9H9.65625C9.45703 8.58008 9.16992 8.21484 8.82812 7.90625L9.40625 6.29688C9.6582 5.59961 9.35547 4.81836 8.70312 4.46875L7.85938 4V4.01562C7.67969 3.91992 7.4668 3.86719 7.26562 3.89062ZM7.76562 5.09375L8.23438 5.34375C8.45703 5.46289 8.55469 5.7168 8.46875 5.95312L7.96875 7.32812C7.67969 7.19336 7.37109 7.09766 7.04688 7.04688L7.76562 5.09375ZM6.5 8C7.88672 8 9 9.11328 9 10.5C9 11.8867 7.88672 13 6.5 13C5.11328 13 4 11.8867 4 10.5C4 9.11328 5.11328 8 6.5 8Z" fill="#1F1F1F"/>
</svg>
