<svg width="40" height="40" viewBox="0 0 40 40" fill="none" xmlns="http://www.w3.org/2000/svg">
<path d="M20 3.75C11.04 3.75 3.75 11.04 3.75 20C3.75 28.96 11.04 36.25 20 36.25C28.96 36.25 36.25 28.96 36.25 20C36.25 11.04 28.96 3.75 20 3.75ZM20 6.25C20.4225 6.25 20.8375 6.27598 21.25 6.31348V7.5H23.75V6.78223C26.8225 7.65598 29.4575 9.56789 31.25 12.1191V16.25L32.5 18.75V20H33.75C33.75 20.4575 33.7254 20.9112 33.6816 21.3574C33.6704 21.4774 33.6454 21.5927 33.6304 21.7114C33.5891 22.0402 33.5464 22.3667 33.4814 22.688C33.4577 22.808 33.4259 22.9257 33.3984 23.0444C33.3259 23.3619 33.248 23.6781 33.1543 23.9868C33.1218 24.0931 33.0843 24.1968 33.0493 24.3018C32.9443 24.6193 32.8326 24.9342 32.7051 25.2417C32.6676 25.3317 32.6266 25.4191 32.5879 25.5078C32.4479 25.8266 32.3012 26.1403 32.1387 26.4453C32.0999 26.5191 32.0579 26.5913 32.0166 26.6626C31.8416 26.9776 31.6563 27.283 31.4575 27.583C31.4188 27.6418 31.3779 27.7025 31.3379 27.7612C31.1279 28.0675 30.9051 28.3648 30.6714 28.6523C30.6326 28.6998 30.5978 28.7453 30.5591 28.7915C30.3166 29.0828 30.0599 29.3613 29.7949 29.6313C29.7562 29.6701 29.7189 29.7122 29.6802 29.751C29.4089 30.0197 29.1255 30.2775 28.833 30.5225C28.7918 30.5575 28.7559 30.5937 28.7134 30.6274C28.4209 30.8674 28.114 31.0912 27.8027 31.3062C27.754 31.3399 27.7099 31.3786 27.6611 31.4111C27.3624 31.6124 27.0508 31.7952 26.7358 31.9727C25.2683 32.7964 23.637 33.3636 21.897 33.6011L26.9116 29.8218L28.2861 28.4473L30 25V23.75L27.5 22.5H26.25L23.75 20H21.25L20 21.25V22.5L18.75 23.75V26.25L21.25 28.2495L18.7793 33.689C11.768 33.0665 6.25 27.1688 6.25 20C6.25 15.74 8.19875 11.9269 11.25 9.40186V10L10 11.25V13.999L11.25 18.75L17.5 21.25H18.75V20L15 18.75V16.25H18.75L20 13.125L22.5 11.25V10L18.75 7.5L16.9531 6.60156C17.9344 6.37906 18.9513 6.25 20 6.25ZM18.75 17.5V18.75H21.25V17.5H18.75Z" fill="white"/>
</svg>
