<svg width="101" height="17" viewBox="0 0 101 17" fill="none" xmlns="http://www.w3.org/2000/svg">
<g id="Size=White Big, Color=Purple">
<g id="Vector">
<path d="M90.0528 11.36V9.02H100.073V11.36H90.0528ZM93.7528 15.04V5.3H96.3528V15.04H93.7528Z" fill="#7868A1"/>
<path d="M77.8914 15.84V5.26H80.6114L80.6914 7.42L80.1314 7.66C80.2781 7.18 80.5381 6.74667 80.9114 6.36C81.2981 5.96 81.7581 5.64 82.2914 5.4C82.8247 5.16 83.3847 5.04 83.9714 5.04C84.7714 5.04 85.4381 5.2 85.9714 5.52C86.5181 5.84 86.9247 6.32667 87.1914 6.98C87.4714 7.62 87.6114 8.41333 87.6114 9.36V15.84H84.7714V9.58C84.7714 9.1 84.7047 8.7 84.5714 8.38C84.4381 8.06 84.2314 7.82667 83.9514 7.68C83.6847 7.52 83.3514 7.45333 82.9514 7.48C82.6314 7.48 82.3314 7.53333 82.0514 7.64C81.7847 7.73333 81.5514 7.87333 81.3514 8.06C81.1647 8.24667 81.0114 8.46 80.8914 8.7C80.7847 8.94 80.7314 9.2 80.7314 9.48V15.84H79.3314C79.0247 15.84 78.7514 15.84 78.5114 15.84C78.2714 15.84 78.0647 15.84 77.8914 15.84Z" fill="white"/>
<path d="M69.9747 16.04C68.8947 16.04 67.928 15.8067 67.0747 15.34C66.2347 14.86 65.568 14.2067 65.0747 13.38C64.5947 12.5533 64.3547 11.6067 64.3547 10.54C64.3547 9.47333 64.5947 8.53333 65.0747 7.72C65.568 6.89333 66.2347 6.24 67.0747 5.76C67.928 5.28 68.8947 5.04 69.9747 5.04C71.0414 5.04 71.9947 5.28 72.8347 5.76C73.688 6.24 74.3547 6.89333 74.8347 7.72C75.3147 8.53333 75.5547 9.47333 75.5547 10.54C75.5547 11.6067 75.3147 12.5533 74.8347 13.38C74.3547 14.2067 73.688 14.86 72.8347 15.34C71.9947 15.8067 71.0414 16.04 69.9747 16.04ZM69.9747 13.56C70.4947 13.56 70.9614 13.4333 71.3747 13.18C71.788 12.9133 72.108 12.5533 72.3347 12.1C72.5747 11.6333 72.6947 11.1133 72.6947 10.54C72.6947 9.95333 72.5747 9.43333 72.3347 8.98C72.108 8.51333 71.788 8.15333 71.3747 7.9C70.9614 7.63333 70.4947 7.5 69.9747 7.5C69.4414 7.5 68.968 7.63333 68.5547 7.9C68.1414 8.16667 67.8147 8.52667 67.5747 8.98C67.3347 9.43333 67.2214 9.95333 67.2347 10.54C67.2214 11.1133 67.3347 11.6333 67.5747 12.1C67.8147 12.5533 68.1414 12.9133 68.5547 13.18C68.968 13.4333 69.4414 13.56 69.9747 13.56Z" fill="white"/>
<path fill-rule="evenodd" clip-rule="evenodd" d="M59.1014 2.68001C59.4081 2.94667 59.8347 3.08001 60.3814 3.08001C60.9147 3.08001 61.3347 2.94001 61.6414 2.66001C61.9614 2.38001 62.1214 2.00667 62.1214 1.54001C62.1214 1.06001 61.9681 0.686672 61.6614 0.420005C61.3547 0.140005 60.9281 4.76837e-06 60.3814 4.76837e-06C59.8481 4.76837e-06 59.4214 0.146672 59.1014 0.440005C58.7947 0.720006 58.6414 1.08667 58.6414 1.54001C58.6414 2.03334 58.7947 2.41334 59.1014 2.68001Z" fill="#7868A1"/>
<path d="M58.9814 15.84V5.26H61.8214V15.84H58.9814Z" fill="white"/>
<path d="M52.2967 16.04C51.3101 16.04 50.4301 15.88 49.6567 15.56C48.8967 15.2267 48.2834 14.7733 47.8167 14.2L49.5767 12.68C49.9901 13.12 50.4501 13.44 50.9567 13.64C51.4634 13.8267 51.9701 13.92 52.4767 13.92C52.6767 13.92 52.8567 13.9 53.0167 13.86C53.1901 13.8067 53.3367 13.74 53.4567 13.66C53.5767 13.5667 53.6634 13.46 53.7167 13.34C53.7834 13.2067 53.8167 13.0667 53.8167 12.92C53.8167 12.6267 53.6967 12.3933 53.4567 12.22C53.3234 12.1533 53.1167 12.0733 52.8367 11.98C52.5567 11.8733 52.1967 11.76 51.7567 11.64C51.0767 11.4667 50.4967 11.2667 50.0167 11.04C49.5501 10.8 49.1767 10.5333 48.8967 10.24C48.6567 9.96 48.4701 9.66 48.3367 9.34C48.2167 9.00667 48.1567 8.64 48.1567 8.24C48.1567 7.76 48.2634 7.32667 48.4767 6.94C48.6901 6.54 48.9834 6.2 49.3567 5.92C49.7434 5.64 50.1834 5.42667 50.6767 5.28C51.1701 5.12 51.6901 5.04 52.2367 5.04C52.7834 5.04 53.3167 5.10667 53.8367 5.24C54.3567 5.37333 54.8367 5.56667 55.2767 5.82C55.7301 6.06 56.1234 6.34667 56.4567 6.68L54.9367 8.36C54.6967 8.13333 54.4234 7.92667 54.1167 7.74C53.8234 7.55333 53.5167 7.40667 53.1967 7.3C52.8767 7.19333 52.5901 7.14 52.3367 7.14C52.1101 7.14 51.9034 7.16 51.7167 7.2C51.5434 7.24 51.3967 7.3 51.2767 7.38C51.1567 7.46 51.0634 7.56667 50.9967 7.7C50.9434 7.82 50.9167 7.95333 50.9167 8.1C50.9167 8.24667 50.9501 8.38667 51.0167 8.52C51.0967 8.65333 51.2034 8.76667 51.3367 8.86C51.4834 8.94 51.6967 9.03333 51.9767 9.14C52.2701 9.24667 52.6634 9.36667 53.1567 9.5C53.7967 9.67333 54.3367 9.86667 54.7767 10.08C55.2301 10.2933 55.5901 10.54 55.8567 10.82C56.0834 11.06 56.2501 11.3333 56.3567 11.64C56.4634 11.9467 56.5167 12.2867 56.5167 12.66C56.5167 13.3133 56.3301 13.9 55.9567 14.42C55.5967 14.9267 55.0967 15.3267 54.4567 15.62C53.8167 15.9 53.0967 16.04 52.2967 16.04Z" fill="white"/>
<path d="M39.5791 16.04C38.8057 16.04 38.1391 15.8733 37.5791 15.54C37.0324 15.1933 36.6057 14.7067 36.2991 14.08C36.0057 13.44 35.8591 12.6733 35.8591 11.78V5.26H38.6991V11.32C38.6991 11.8 38.7791 12.22 38.9391 12.58C39.0991 12.9267 39.3257 13.1933 39.6191 13.38C39.9124 13.5667 40.2724 13.66 40.6991 13.66C41.0057 13.66 41.2924 13.6133 41.5591 13.52C41.8257 13.4133 42.0524 13.2667 42.2391 13.08C42.4257 12.8933 42.5724 12.6733 42.6791 12.42C42.7857 12.1667 42.8391 11.8933 42.8391 11.6V5.26H45.6791V15.84H42.9791L42.8791 13.66L43.3991 13.42C43.2391 13.9133 42.9724 14.36 42.5991 14.76C42.2257 15.16 41.7791 15.4733 41.2591 15.7C40.7391 15.9267 40.1791 16.04 39.5791 16.04Z" fill="white"/>
<path d="M30.1145 15.84V1.04H32.9545V15.84H30.1145Z" fill="white"/>
<path d="M23.6547 16.04C22.6414 16.04 21.7347 15.8 20.9347 15.32C20.1347 14.84 19.5014 14.1867 19.0347 13.36C18.5814 12.5333 18.3547 11.5933 18.3547 10.54C18.3547 9.5 18.5814 8.56667 19.0347 7.74C19.5014 6.9 20.1347 6.24 20.9347 5.76C21.7347 5.28 22.6414 5.04 23.6547 5.04C24.6014 5.04 25.468 5.21333 26.2547 5.56C27.0414 5.90667 27.6547 6.38667 28.0947 7L26.5347 8.88C26.348 8.62667 26.1147 8.4 25.8347 8.2C25.5547 7.98667 25.248 7.82 24.9147 7.7C24.5947 7.58 24.2614 7.52 23.9147 7.52C23.368 7.52 22.8814 7.65333 22.4547 7.92C22.0414 8.17333 21.7147 8.52667 21.4747 8.98C21.2347 9.43333 21.1147 9.95333 21.1147 10.54C21.1147 11.1133 21.2347 11.6267 21.4747 12.08C21.728 12.52 22.068 12.88 22.4947 13.16C22.9214 13.4267 23.4014 13.56 23.9347 13.56C24.2814 13.56 24.608 13.5133 24.9147 13.42C25.2214 13.3133 25.508 13.16 25.7747 12.96C26.0547 12.76 26.308 12.52 26.5347 12.24L28.0747 14.12C27.6214 14.6933 26.9947 15.16 26.1947 15.52C25.3947 15.8667 24.548 16.04 23.6547 16.04Z" fill="white"/>
<path d="M6.41328 15.84V5.26H9.13328L9.21328 7.42L8.65328 7.66C8.79995 7.18 9.05995 6.74667 9.43328 6.36C9.81995 5.96 10.2799 5.64 10.8133 5.4C11.3466 5.16 11.9066 5.04 12.4933 5.04C13.2933 5.04 13.9599 5.2 14.4933 5.52C15.0399 5.84 15.4466 6.32667 15.7133 6.98C15.9933 7.62 16.1333 8.41333 16.1333 9.36V15.84H13.2933V9.58C13.2933 9.1 13.2266 8.7 13.0933 8.38C12.9599 8.06 12.7533 7.82667 12.4733 7.68C12.2066 7.52 11.8733 7.45333 11.4733 7.48C11.1533 7.48 10.8533 7.53333 10.5733 7.64C10.3066 7.73333 10.0733 7.87333 9.87328 8.06C9.68661 8.24667 9.53328 8.46 9.41328 8.7C9.30661 8.94 9.25328 9.2 9.25328 9.48V15.84H7.85328C7.54661 15.84 7.27328 15.84 7.03328 15.84C6.79328 15.84 6.58661 15.84 6.41328 15.84Z" fill="white"/>
<path fill-rule="evenodd" clip-rule="evenodd" d="M0.46 2.68C0.766667 2.94667 1.19333 3.08 1.74 3.08C2.27333 3.08 2.69333 2.94 3 2.66C3.32 2.38 3.48 2.00667 3.48 1.54C3.48 1.06 3.32667 0.686667 3.02 0.420001C2.71333 0.14 2.28667 0 1.74 0C1.20667 0 0.78 0.146667 0.46 0.440001C0.153333 0.720001 0 1.08667 0 1.54C0 2.03333 0.153333 2.41333 0.46 2.68Z" fill="#7868A1"/>
<path d="M0.34 15.84V5.26H3.18V15.84H0.34Z" fill="white"/>
</g>
</g>
</svg>
